<svg xmlns="http://www.w3.org/2000/svg" width="286.105" height="113.302"><linearGradient id="a" gradientUnits="userSpaceOnUse" x1="-244.021" y1="-824.111" x2="-215.788" y2="-827.979" gradientTransform="matrix(0.9133,-0.4073,-0.4073,-0.9133,125.4622,-759.2246)"><stop offset="0" stop-color="#706f6e"/><stop offset=".123" stop-color="#8c8b8a"/><stop offset=".301" stop-color="#afaeac"/><stop offset=".469" stop-color="#c8c7c4"/><stop offset=".622" stop-color="#d8d6d3"/><stop offset=".745" stop-color="#dddbd8"/></linearGradient><linearGradient id="b" gradientUnits="userSpaceOnUse" x1="-267.054" y1="-804.711" x2="-238.064" y2="-789.364" gradientTransform="matrix(0.9133,-0.4073,-0.4073,-0.9133,125.4622,-759.2246)"><stop offset="0" stop-color="#515285"/><stop offset="1" stop-color="#6465a3"/></linearGradient><radialGradient id="c" cx="659.253" cy="748.352" r="8.003" gradientTransform="matrix(0.1177,0.993,1.7119,-0.2029,-1139.361,-432.0273)" gradientUnits="userSpaceOnUse"><stop offset="0" stop-color="#6264a7"/><stop offset=".878" stop-color="#8b8cc7"/></radialGradient><path d="M7.868 97.987H.724a.725.725 0 0 1 0-1.449h7.144a.724.724 0 1 1 0 1.449z" fill="#b3afab"/><path d="M.835 97.987c.134 3.011.584 9.868 1.968 11.815H5.79c1.384-1.947 1.834-8.804 1.968-11.815z" fill="#6e6fac"/><path d="M16.869 86.535h-3.143a.907.907 0 0 1-.908-.907v-2.212c0-.5.407-.907.908-.907h3.143c.501 0 .907.406.907.907v2.212a.907.907 0 0 1-.907.907z" fill="none" stroke="#6e6fac" stroke-miterlimit="10"/><path d="M27.67 95.982v9.78c0 2.23-1.81 4.04-4.04 4.04H10.222c-1.29 0-2.34-1.04-2.34-2.33v-20.87c0-1.29 1.05-2.33 2.34-2.33h10.93c1.29 0 2.34 1.04 2.34 2.33v5.34h.136c2.23 0 4.04 1.81 4.04 4.04z" fill="#c8c6c4"/><path d="M21.424 84.272h-11.2c-1.29 0-2.34 1.04-2.34 2.33v20.87c0 1.29 1.05 2.33 2.34 2.33h11.2z" fill="#b3afab"/><path d="M16.976 106.749c-.35 1.454-.89 2.552-1.547 3.185-.116.112 0 .33.173.33h2.69c.362 0 .676-.183.811-.5.373-.876.656-1.89.844-3.015z" fill="#93908d"/><path d="M15.364 98.763c.431-5.238 2.262-9.273 4.157-10.95.204-.18.108-.49-.153-.49h-2.57a.797.797 0 0 0-.647.334c-1.858 2.626-3.183 6.563-3.557 11.106-.374 4.556.31 8.494 1.738 11.122a.75.75 0 0 0 .673.378h3.403c-1.956-1.14-3.533-5.55-3.044-11.5z" fill="#c8c6c4"/><path d="M9.349 106.749c-.35 1.454-.89 2.552-1.548 3.185-.116.112 0 .33.174.33h2.69c.362 0 .676-.183.81-.5.374-.876.656-1.89.845-3.015z" fill="#93908d"/><path d="M7.737 98.763c.43-5.238 2.262-9.273 4.157-10.95.203-.18.108-.49-.153-.49H9.17a.797.797 0 0 0-.647.334C6.666 90.283 5.34 94.22 4.967 98.763c-.375 4.556.31 8.494 1.738 11.122a.75.75 0 0 0 .672.378h3.404c-1.956-1.14-3.534-5.55-3.044-11.5z" fill="#c8c6c4"/><g><path d="M70.446 12.795h-.341l-.282-.471a.936.936 0 0 0-.074-.112.467.467 0 0 0-.074-.075.237.237 0 0 0-.082-.043.314.314 0 0 0-.1-.013h-.117v.714h-.291v-1.762h.58c.083 0 .159.01.228.03.07.02.13.049.182.089.052.039.092.089.121.148.03.06.044.13.044.208a.51.51 0 0 1-.027.172.45.45 0 0 1-.202.243.632.632 0 0 1-.162.067v.005c.032.017.06.037.084.06a1.086 1.086 0 0 1 .13.144c.022.029.045.063.07.101zm-1.07-1.525v.573h.243a.347.347 0 0 0 .125-.021.276.276 0 0 0 .164-.156.33.33 0 0 0 .023-.127.252.252 0 0 0-.08-.198.338.338 0 0 0-.23-.071zM71.62 12.244h-.859c.003.116.04.206.108.27a.403.403 0 0 0 .282.094c.134 0 .258-.04.37-.121v.23a.845.845 0 0 1-.455.108.562.562 0 0 1-.436-.171c-.105-.115-.158-.276-.158-.483a.67.67 0 0 1 .174-.478.568.568 0 0 1 .432-.186c.172 0 .306.056.4.166.094.11.141.265.141.461v.11zm-.276-.201a.366.366 0 0 0-.073-.24.245.245 0 0 0-.196-.086.278.278 0 0 0-.209.09.414.414 0 0 0-.105.235zM72.792 12.738a.7.7 0 0 1-.358.087.603.603 0 0 1-.452-.175.617.617 0 0 1-.172-.454c0-.207.061-.374.185-.5a.664.664 0 0 1 .494-.189c.115 0 .217.02.304.06v.267a.46.46 0 0 0-.28-.1c-.12 0-.22.042-.297.123a.45.45 0 0 0-.115.32c0 .131.036.234.109.309.072.075.17.113.292.113a.455.455 0 0 0 .29-.11v.249zM74.14 12.244h-.857c.003.116.039.206.107.27a.403.403 0 0 0 .282.094c.135 0 .258-.04.37-.121v.23a.845.845 0 0 1-.455.108.562.562 0 0 1-.435-.171c-.106-.115-.158-.276-.158-.483a.67.67 0 0 1 .173-.478.568.568 0 0 1 .432-.186c.173 0 .306.056.4.166.095.11.142.265.142.461v.11zm-.275-.201a.366.366 0 0 0-.072-.24.245.245 0 0 0-.197-.086.278.278 0 0 0-.208.09.414.414 0 0 0-.105.235zM75.534 12.795h-.286v-.709c0-.235-.083-.352-.25-.352a.27.27 0 0 0-.214.098.363.363 0 0 0-.085.246v.718h-.287v-1.26h.287v.21h.005a.45.45 0 0 1 .408-.239c.137 0 .241.045.313.134.073.09.109.217.109.385zM76.545 12.782a.49.49 0 0 1-.22.042c-.244 0-.366-.117-.366-.352v-.712h-.21v-.223h.21v-.291l.285-.081v.372h.301v.223h-.3v.63c0 .074.013.128.04.16.027.031.072.048.135.048a.2.2 0 0 0 .125-.042zM81.812 12.723a1.076 1.076 0 0 1-.496.103c-.256 0-.46-.08-.614-.242-.155-.162-.231-.374-.231-.635 0-.282.086-.51.26-.684a.89.89 0 0 1 .657-.26c.17 0 .312.024.424.072v.29a.76.76 0 0 0-.394-.106.619.619 0 0 0-.464.184.674.674 0 0 0-.178.49c0 .193.056.348.166.463.111.115.257.173.437.173.166 0 .31-.04.433-.118zM82.672 12.826a.625.625 0 0 1-.465-.176.639.639 0 0 1-.174-.468c0-.212.06-.377.181-.495a.667.667 0 0 1 .49-.179c.196 0 .35.058.46.174.11.115.164.275.164.48 0 .2-.06.362-.177.483a.639.639 0 0 1-.479.18zm.014-1.09c-.111 0-.2.039-.264.117a.485.485 0 0 0-.097.321.46.46 0 0 0 .098.312.33.33 0 0 0 .263.114.312.312 0 0 0 .259-.112c.06-.074.09-.18.09-.319a.504.504 0 0 0-.09-.32.312.312 0 0 0-.259-.113zM84.74 12.796h-.286v-.709c0-.235-.083-.352-.25-.352a.27.27 0 0 0-.215.098.363.363 0 0 0-.085.246v.718h-.286v-1.26h.286v.21h.005a.45.45 0 0 1 .408-.239c.137 0 .242.045.314.134.072.09.108.217.108.385v.77zM85.751 12.783a.49.49 0 0 1-.22.042c-.244 0-.366-.117-.366-.352v-.712h-.21v-.223h.21v-.291l.285-.081v.372h.301v.223h-.301v.63c0 .074.013.128.04.16.027.031.073.048.135.048a.2.2 0 0 0 .126-.042zM86.963 12.796h-.276V12.6h-.005a.417.417 0 0 1-.383.226.402.402 0 0 1-.29-.1.354.354 0 0 1-.106-.268c0-.237.137-.376.41-.415l.374-.052c0-.18-.085-.27-.255-.27a.606.606 0 0 0-.406.156v-.25a.88.88 0 0 1 .46-.119c.318 0 .477.157.477.47v.818zm-.275-.618l-.265.037a.418.418 0 0 0-.185.06c-.041.03-.062.08-.062.153 0 .053.02.097.057.131a.22.22 0 0 0 .153.05.28.28 0 0 0 .216-.09.323.323 0 0 0 .085-.231v-.11zM88.212 12.739a.7.7 0 0 1-.358.087.603.603 0 0 1-.452-.175.617.617 0 0 1-.172-.454c0-.207.061-.374.185-.5a.664.664 0 0 1 .495-.189c.115 0 .216.02.303.06v.267a.46.46 0 0 0-.28-.1c-.12 0-.22.042-.296.123a.45.45 0 0 0-.115.32c0 .131.036.234.108.309.073.075.17.113.292.113a.455.455 0 0 0 .29-.11v.249zM89.16 12.783a.49.49 0 0 1-.221.042c-.244 0-.366-.117-.366-.352v-.712h-.21v-.223h.21v-.291l.285-.081v.372h.301v.223h-.301v.63c0 .074.014.128.04.16.027.031.073.048.136.048a.2.2 0 0 0 .125-.042v.226zM89.326 12.757v-.264a.57.57 0 0 0 .353.122c.172 0 .258-.051.258-.152a.122.122 0 0 0-.022-.074.207.207 0 0 0-.06-.053.5.5 0 0 0-.088-.042 1.3 1.3 0 0 1-.253-.106.421.421 0 0 1-.103-.079.303.303 0 0 1-.083-.227c0-.062.014-.115.043-.161a.368.368 0 0 1 .115-.117.53.53 0 0 1 .165-.071.871.871 0 0 1 .503.028v.25a.528.528 0 0 0-.403-.08.273.273 0 0 0-.074.03.161.161 0 0 0-.049.048.116.116 0 0 0-.017.061c0 .027.006.05.017.07a.165.165 0 0 0 .052.05c.022.013.049.026.08.038l.11.04c.054.02.102.043.145.067.043.022.08.049.11.078a.303.303 0 0 1 .095.236c0 .064-.015.12-.044.167a.369.369 0 0 1-.118.118.538.538 0 0 1-.17.07.856.856 0 0 1-.204.022.865.865 0 0 1-.358-.069z" fill="#6264a7"/><path d="M226.01 1H56.233c-.795 0-1.439.644-1.439 1.439v106.583c0 .795.644 1.439 1.439 1.439h169.776c.795 0 1.44-.644 1.44-1.439V2.44c0-.795-.645-1.439-1.44-1.439z" fill="#e1dfdd"/><path d="M53.494 7.924h172.654V1.438c0-.794-.644-1.438-1.439-1.438H54.933c-.795 0-1.439.644-1.439 1.438z" fill="#464775"/><path d="M167.769 6.06h-56.366a.72.72 0 0 1-.72-.719V2.698a.72.72 0 0 1 .72-.719h56.366a.72.72 0 0 1 .719.72V5.34a.72.72 0 0 1-.72.72z" fill="#f3f2f1"/><path d="M106.76 4.79a.207.207 0 0 1-.02.09.252.252 0 0 1-.127.126.217.217 0 0 1-.09.02h-1.416a.24.24 0 0 1-.165-.071.252.252 0 0 1-.052-.076.211.211 0 0 1-.02-.09V3.375c0-.033.007-.063.02-.091a.261.261 0 0 1 .127-.126.217.217 0 0 1 .09-.02h.63c.02 0 .039.008.055.024a.076.076 0 0 1 .023.055.078.078 0 0 1-.079.078h-.629a.076.076 0 0 0-.056.024.078.078 0 0 0-.023.056V4.79a.079.079 0 0 0 .079.079h1.416c.021 0 .04-.008.056-.024a.078.078 0 0 0 .023-.055v-.63c0-.02.008-.04.023-.055a.076.076 0 0 1 .056-.023c.02 0 .04.007.055.023a.076.076 0 0 1 .023.056zm.314-1.653a.317.317 0 0 1-.093.223l-.935.936a.15.15 0 0 1-.043.02 1.21 1.21 0 0 1-.087.027l-.11.032-.112.027a1.515 1.515 0 0 1-.15.028.076.076 0 0 1-.054-.023.074.074 0 0 1-.024-.055 1.964 1.964 0 0 1 .028-.149 2.683 2.683 0 0 1 .06-.222c.01-.033.018-.063.027-.087a.156.156 0 0 1 .02-.044l.936-.935a.294.294 0 0 1 .102-.068.301.301 0 0 1 .241.001.323.323 0 0 1 .168.168c.018.038.026.08.026.121zm-.157 0a.14.14 0 0 0-.013-.06.163.163 0 0 0-.035-.05.156.156 0 0 0-.22-.002l-.922.922-.074.297.297-.076.921-.92a.16.16 0 0 0 .045-.111z" fill="#fff"/><circle cx="220.157" cy="3.959" r="2.693" fill="#b4e0f5"/><path fill="#fff" d="M65.129 7.924h45.88v101.537h-45.88z"/><path fill="#e1dfdd" d="M80.469 62.875h18.327v2.158H80.469zM80.469 66.655h12.687v1.438H80.469zM102.347 63.235h5.552v1.438h-5.552z"/><path fill="#e2e2f6" d="M65.129 17.261h45.88v13.868h-45.88z"/><path opacity=".6" fill="#b3afab" d="M80.481 21.314h18.327v2.158H80.481zM80.481 25.093h9.911v1.438h-9.911zM104.474 21.674h3.436v1.438h-3.436z"/><path fill="#e1dfdd" d="M80.469 76.675h13.84v2.158h-13.84zM80.469 80.455h13.84v1.438h-13.84zM104.463 77.035h3.436v1.438h-3.436zM80.481 91.068h18.327v2.158H80.481zM80.481 94.848h12.687v1.438H80.481zM103.208 91.428h4.702v1.438h-4.702zM80.468 48.745h10.04v2.158h-10.04zM80.468 52.524h19.094v1.438H80.468zM104.461 49.104h3.436v1.438h-3.436zM80.481 35.091h19.081v2.158H80.481zM80.481 38.87h18.314v1.438H80.481zM103.244 35.45h4.667v1.438h-4.667z"/><path fill="#6264a7" d="M68.758 13.801h7.962v.88h-7.962zM68.758 11.033h7.962v1.792h-7.962z"/><path d="M65.129 109.46H54.932a1.439 1.439 0 0 1-1.438-1.438V7.924h11.635z" fill="#33344a"/><path d="M58.113 31.564a.53.53 0 0 1-.046.218.594.594 0 0 1-.301.302.53.53 0 0 1-.218.044.529.529 0 0 1-.217-.045.597.597 0 0 1-.301-.301.53.53 0 0 1 0-.435.585.585 0 0 1 .301-.302.529.529 0 0 1 .217-.045.53.53 0 0 1 .218.045.594.594 0 0 1 .302.302.53.53 0 0 1 .045.217zm0 .847v1.427h-.282c-.093 0-.189-.01-.288-.029a.904.904 0 0 1-.273-.097.598.598 0 0 1-.205-.18.466.466 0 0 1-.08-.28v-.841h1.128zm1.974-.283V33.8a.469.469 0 0 1-.08.28.6.6 0 0 1-.205.18.96.96 0 0 1-.274.096 1.476 1.476 0 0 1-.573-.001c-.099-.02-.19-.053-.273-.097a.615.615 0 0 1-.206-.18.464.464 0 0 1-.082-.278v-1.672zm-.282-.845a.537.537 0 0 1-.045.216.587.587 0 0 1-.302.302.531.531 0 0 1-.217.045.527.527 0 0 1-.217-.045.597.597 0 0 1-.302-.302.537.537 0 0 1 0-.433.575.575 0 0 1 .519-.348.548.548 0 0 1 .396.168.575.575 0 0 1 .168.397zm1.692.28c0 .078-.015.15-.045.219a.596.596 0 0 1-.302.302.529.529 0 0 1-.217.044.53.53 0 0 1-.217-.045.595.595 0 0 1-.302-.301.53.53 0 0 1-.045-.218c0-.076.015-.148.045-.217a.587.587 0 0 1 .302-.302.53.53 0 0 1 .217-.045c.076 0 .149.015.217.045a.597.597 0 0 1 .302.302c.03.068.045.14.045.217zm0 .848v.841a.466.466 0 0 1-.08.28.594.594 0 0 1-.205.18.907.907 0 0 1-.274.097c-.099.02-.194.03-.287.03h-.282V32.41zM61.174 40.931v2.654a.357.357 0 0 1-.087.25.514.514 0 0 1-.22.142c-.13.045-.264.08-.403.106a5.478 5.478 0 0 1-.846.086 20.444 20.444 0 0 1-.835 0 5.429 5.429 0 0 1-.846-.086 2.837 2.837 0 0 1-.403-.106.513.513 0 0 1-.221-.143.358.358 0 0 1-.087-.249v-2.654a.433.433 0 0 1 .423-.424h.705l-.004-.09a1.857 1.857 0 0 1 .002-.168.277.277 0 0 1 .02-.08.156.156 0 0 1 .044-.06.122.122 0 0 1 .08-.024c.033 0 .06.008.08.024.02.017.035.036.045.06.01.025.017.051.02.081a.818.818 0 0 1 .002.17l-.007.087h1.128l-.004-.09a1.857 1.857 0 0 1 .002-.168.277.277 0 0 1 .02-.08.162.162 0 0 1 .044-.06.122.122 0 0 1 .08-.024c.033 0 .06.008.08.024.02.017.035.036.045.06.01.025.017.051.02.081a.818.818 0 0 1 .002.17l-.007.087h.705c.058 0 .112.012.164.034a.454.454 0 0 1 .226.227.4.4 0 0 1 .033.163zM58.072 42.2h.564v-.565h-.564zm0 .845h.564v-.563h-.564zm.846-.845h.564v-.565h-.564zm0 .845h.564v-.563h-.564zm.846-.845h.565v-.565h-.565zM60.963 50.195v3.666a.395.395 0 0 1-.034.162.446.446 0 0 1-.39.26h-2.538a.395.395 0 0 1-.162-.034.448.448 0 0 1-.227-.227.395.395 0 0 1-.034-.161v-2.398h1.406v-1.691h1.555c.058 0 .112.012.163.034a.448.448 0 0 1 .227.227c.022.05.034.104.034.162zm-2.26-.309v1.296h-1.1a.486.486 0 0 1 .042-.084 5.213 5.213 0 0 1 .387-.464 8.493 8.493 0 0 0 .496-.571c.05-.064.108-.124.174-.177zM61.417 101.014a.412.412 0 0 1-.119.287l-.66.66a.41.41 0 0 1 .253.368v1.053a.36.36 0 0 1-.032.152.417.417 0 0 1-.212.212.36.36 0 0 1-.15.03h-2.633a.366.366 0 0 1-.152-.03.411.411 0 0 1-.212-.212.367.367 0 0 1-.031-.152v-2.631a.37.37 0 0 1 .031-.152.427.427 0 0 1 .212-.21.362.362 0 0 1 .152-.033h1.052a.4.4 0 0 1 .309.151c.025.03.044.065.06.102l.66-.66a.404.404 0 0 1 .288-.12.41.41 0 0 1 .288.12l.777.777a.405.405 0 0 1 .12.288zm-2.369.921v-1.185a.129.129 0 0 0-.039-.092.13.13 0 0 0-.093-.04h-1.052a.13.13 0 0 0-.093.04.129.129 0 0 0-.04.092v1.185zm0 1.58v-1.317h-1.316v1.184c0 .036.013.067.039.093.026.027.057.04.093.04zm2.106-2.5a.136.136 0 0 0-.01-.056.173.173 0 0 0-.03-.046l-.78-.779a.138.138 0 0 0-.156-.03.175.175 0 0 0-.046.03l-.78.78a.173.173 0 0 0-.03.045.136.136 0 0 0 0 .11.19.19 0 0 0 .03.046l.78.779a.147.147 0 0 0 .046.03.134.134 0 0 0 .11 0 .15.15 0 0 0 .045-.03l.78-.78a.19.19 0 0 0 .03-.045.142.142 0 0 0 .011-.055zm-1.353.92l-.49-.49v.49zm.827 1.447v-1.052a.129.129 0 0 0-.04-.093.13.13 0 0 0-.092-.04h-1.185v1.317h1.185a.126.126 0 0 0 .093-.039.127.127 0 0 0 .039-.093zM61.245 13.915c0 .039-.007.074-.023.108a.3.3 0 0 1-.152.151.274.274 0 0 1-.107.023H57.58a.268.268 0 0 1-.198-.085.3.3 0 0 1-.061-.09.254.254 0 0 1-.023-.108c0-.068.014-.12.041-.156a.274.274 0 0 1 .105-.08.59.59 0 0 1 .136-.045.712.712 0 0 0 .135-.044.283.283 0 0 0 .105-.082c.028-.035.042-.087.042-.156v-1.128a1.411 1.411 0 0 1 .416-.995 1.422 1.422 0 0 1 .992-.415 1.36 1.36 0 0 1 1.004.44 1.503 1.503 0 0 1 .408 1.025v1.073c0 .07.015.121.042.156a.288.288 0 0 0 .105.082.719.719 0 0 0 .136.044c.048.01.093.025.135.044a.274.274 0 0 1 .105.081c.028.035.041.088.041.156zm-1.269.705a.668.668 0 0 1-.056.273.723.723 0 0 1-.375.376.678.678 0 0 1-.274.056.678.678 0 0 1-.273-.056.734.734 0 0 1-.375-.376.667.667 0 0 1-.057-.273c0-.038.014-.072.042-.099a.134.134 0 0 1 .1-.042h1.127c.039 0 .071.014.1.042.027.027.041.06.041.099z" fill="#fff"/><path fill="#6264a7" d="M53.494 17.642h11.635v9.518H53.494z"/><path d="M61.174 20.844v3.765a.298.298 0 0 1-.09.214.315.315 0 0 1-.216.09.282.282 0 0 1-.129-.03.384.384 0 0 1-.107-.082l-.692-.764-.028-.014c-.143.003-.285.01-.427.02-.141.01-.283.015-.426.015-.143 0-.288-.001-.438-.005a7.697 7.697 0 0 1-.448-.025 5.104 5.104 0 0 1-.444-.06 2.905 2.905 0 0 1-.422-.108.601.601 0 0 1-.262-.167.414.414 0 0 1-.101-.29v-2.559a.424.424 0 0 1 .132-.311.474.474 0 0 1 .142-.096.422.422 0 0 1 .171-.035h3.34c.06 0 .118.011.171.035.054.023.1.056.142.096a.442.442 0 0 1 .132.311zm-3.102.967h1.974v-.281h-1.974zm0 .847h1.316v-.283h-1.316z" fill="#fff"/><path d="M224.71 109.46H111.008V7.924h115.14v100.098c0 .794-.644 1.438-1.438 1.438z" fill="#f3f2f1"/><path fill="#e2e2f6" d="M118.948 23.056h20.244v1.438h-20.244zM143.846 23.056h6.166v1.438h-6.166zM183.274 23.056h19.385v1.438h-19.385zM172.292 23.056h6.328v1.438h-6.328zM154.666 23.056h12.973v1.438h-12.973zM118.948 25.917h20.244v1.079h-20.244z"/><path d="M216.12 93.038h-70.278a.72.72 0 0 1-.72-.72V75.436a.72.72 0 0 1 .72-.72h70.279a.72.72 0 0 1 .719.72v16.884a.72.72 0 0 1-.72.72z" fill="#c2badb"/><path fill="#8b8cc4" d="M148.704 78.424h52.85v1.438h-52.85z"/><path opacity=".6" fill="#8b8cc4" d="M148.705 81.872h63.012v1.438h-63.012zM148.705 85.32h56.839v1.438h-56.839zM148.705 88.814h13.521v1.438h-13.521z"/><path d="M216.12 58.077h-52.676a.72.72 0 0 1-.719-.72v-10.02a.72.72 0 0 1 .72-.719h52.676a.72.72 0 0 1 .719.72v10.02a.72.72 0 0 1-.72.719z" fill="#c2badb"/><path opacity=".6" fill="#8b8cc4" d="M167.405 49.836h44.665v1.438h-44.665zM167.45 53.617h32.049v1.438H167.45z"/><path d="M199.763 71.356h-69.41a.72.72 0 0 1-.72-.719v-8.864a.72.72 0 0 1 .72-.72h69.41a.72.72 0 0 1 .72.72v8.864a.72.72 0 0 1-.72.72z" fill="#fff"/><path fill="#d9dadd" d="M134.204 67.266h16.707v1.438h-16.707zM134.204 64.388h60.358v1.438h-60.358z"/><path d="M140.165 43.232h-9.784a.72.72 0 0 1-.72-.719V32.97a.72.72 0 0 1 .72-.72h9.784a.72.72 0 0 1 .719.72v9.543a.72.72 0 0 1-.72.72z" fill="#fff"/><path fill="#e1dfdd" d="M129.017 13.671h38.287v3.237h-38.287z"/><circle cx="201.882" cy="15.289" r="2.877" fill="#c2badb"/><path d="M202.287 14.91v.945a.21.21 0 0 1-.203.202h-1.036a.169.169 0 0 1-.103-.031.256.256 0 0 1-.068-.083.477.477 0 0 1-.042-.116 1.137 1.137 0 0 1-.03-.254l-.002-.103v-.175l.001-.102a1.397 1.397 0 0 1 .03-.254.481.481 0 0 1 .043-.116.258.258 0 0 1 .068-.083.169.169 0 0 1 .103-.031h1.036c.027 0 .053.005.078.016a.21.21 0 0 1 .108.108.18.18 0 0 1 .017.078zm.674 0v.945a.063.063 0 0 1-.02.047.064.064 0 0 1-.048.02.063.063 0 0 1-.046-.02l-.341-.324a.27.27 0 0 1-.085-.196.27.27 0 0 1 .084-.194l.342-.325a.063.063 0 0 1 .046-.02c.019 0 .035.007.048.02.013.013.02.03.02.048z" fill="#fff"/><circle cx="208.701" cy="15.289" r="2.877" fill="#c2badb"/><path d="M209.51 15.997a.268.268 0 0 1-.007.069.56.56 0 0 1-.05.136.2.2 0 0 1-.036.052.141.141 0 0 1-.052.034.207.207 0 0 1-.074.011c-.01 0-.02 0-.03-.002a1.664 1.664 0 0 1-.861-.583 1.574 1.574 0 0 1-.313-1.074.228.228 0 0 1 .028-.091.163.163 0 0 1 .067-.062.27.27 0 0 1 .12-.021c.03 0 .058 0 .082.002a.19.19 0 0 1 .12.05.341.341 0 0 1 .054.066.61.61 0 0 1 .078.162.527.527 0 0 1 .032.176.308.308 0 0 1-.055.18.57.57 0 0 1-.059.07 3.223 3.223 0 0 1-.069.07l.326.469.059-.029.06-.026a.524.524 0 0 1 .063-.02.335.335 0 0 1 .16.006.549.549 0 0 1 .165.09c.024.02.048.041.07.063l.042.042a.355.355 0 0 1 .07.101.144.144 0 0 1 .01.059z" fill="#fff"/><circle cx="215.521" cy="15.289" r="2.877" fill="#d9dadd"/><path d="M214.982 14.978a.248.248 0 0 1-.022.103.278.278 0 0 1-.249.167.25.25 0 0 1-.103-.022.28.28 0 0 1-.145-.145.253.253 0 0 1 0-.207.29.29 0 0 1 .145-.144.25.25 0 0 1 .103-.022.25.25 0 0 1 .104.022.286.286 0 0 1 .145.144.258.258 0 0 1 .021.104zm0 .404v.684h-.135a.756.756 0 0 1-.138-.014.48.48 0 0 1-.13-.047.292.292 0 0 1-.099-.086.224.224 0 0 1-.038-.133v-.404zm.944-.134v.674a.226.226 0 0 1-.039.134.283.283 0 0 1-.098.086.47.47 0 0 1-.13.046.678.678 0 0 1-.274 0 .468.468 0 0 1-.131-.047.299.299 0 0 1-.099-.086.221.221 0 0 1-.039-.133v-.674zm-.135-.405a.264.264 0 0 1-.08.19.273.273 0 0 1-.19.08.271.271 0 0 1-.19-.08.264.264 0 0 1 0-.38.29.29 0 0 1 .086-.058.252.252 0 0 1 .104-.021.25.25 0 0 1 .104.021.289.289 0 0 1 .144.145.248.248 0 0 1 .021.103zm.81-.202a.067.067 0 0 1-.068.068h-.203v.202a.063.063 0 0 1-.02.048.068.068 0 0 1-.115-.048v-.202h-.202a.066.066 0 0 1-.047-.02.065.065 0 0 1-.02-.048c0-.019.006-.034.02-.048a.066.066 0 0 1 .047-.02h.202v-.201a.067.067 0 0 1 .115-.048c.014.013.02.029.02.048v.202h.203a.067.067 0 0 1 .067.067z" fill="#16233a"/><path d="M216.12 104.225h-85.768a.72.72 0 0 1-.72-.72V99.19a.72.72 0 0 1 .72-.72h85.769a.72.72 0 0 1 .719.72v4.315a.72.72 0 0 1-.72.72z" fill="#fff"/><path fill="#6264a7" d="M80.471 11.033h9.75v1.792h-9.75z"/><circle cx="135.273" cy="37.742" r="4.398" fill="#f7b548"/><circle cx="133.657" cy="36.575" r=".673" fill="#2b2b2a"/><circle cx="136.978" cy="36.575" r=".673" fill="#2b2b2a"/><path d="M132.311 38.55c.359 1.3 1.57 2.288 2.962 2.288 1.391 0 2.648-.987 2.962-2.289z" fill="#e3646a"/><path d="M138.055 39.088c.09-.18.135-.36.18-.539h-5.969c.045.18.135.36.18.539z" fill="#f3f3f3"/><path d="M133.074 38.19h-.27a1.896 1.896 0 0 1-1.884-1.885v-.628h4.039v.628a1.896 1.896 0 0 1-1.885 1.885zM137.786 38.19h-.27a1.896 1.896 0 0 1-1.884-1.885v-.628h4.039v.628a1.896 1.896 0 0 1-1.885 1.885z" fill="#33312d"/><path d="M139.259 37.462l-1.742-1.785h-1.032l2.218 2.262c.215-.123.403-.284.556-.477z" fill="#797673"/><circle cx="220.157" cy="3.938" r="2.693" fill="#b4e0f5"/><path d="M218.057 3.213a17.027 17.027 0 0 1-.206 2.117 2.682 2.682 0 0 0 2.306 1.322c1.055 0 1.96-.613 2.401-1.497a24.064 24.064 0 0 1-.29-2.117c-.029-.321-4.158-.083-4.21.175z" fill="#3a312e"/><ellipse transform="matrix(0.0082,-1,1,0.0082,215.1042,223.3834)" cx="220.163" cy="3.254" rx="2.347" ry="2.114" fill="#3a312e"/><path d="M218.46 6.034c.464.38 1.05.618 1.697.618.628 0 1.198-.224 1.657-.585a8.421 8.421 0 0 0-1.263-.471c.03.077-1.555.325-1.588.325-.18 0-.349.043-.503.113z" fill="#8b8cc7"/><path d="M221.132 5.782c-.511-.136-.555-.49-.558-.577V4.178h-.938V5.48a.335.335 0 0 1-.26.326l-.558.124c.004.003 1.097.358 2.54-.058-.07-.027-.175-.072-.226-.09z" fill="#bf8f68"/><ellipse transform="matrix(0.0232,-0.9997,0.9997,0.0232,209.4281,222.8138)" cx="218.736" cy="4.235" rx=".279" ry=".268" fill="#f7c6c8"/><ellipse transform="matrix(0.0082,-1,1,0.0082,214.9121,223.2223)" cx="219.986" cy="3.27" rx="1.699" ry="1.402" fill="#bf8f68"/><ellipse transform="matrix(0.0232,-0.9997,0.9997,0.0232,211.9691,223.6829)" cx="220.452" cy="3.369" rx=".22" ry=".131" fill="#3a312e"/><radialGradient id="d" cx="1737.348" cy="-541.04" r=".681" gradientTransform="matrix(-0.9978,0.067,-0.0707,-1.0519,1914.8599,-681.8436)" gradientUnits="userSpaceOnUse"><stop offset="0" stop-color="#9b643d"/><stop offset=".882" stop-color="#ba8a63" stop-opacity=".118"/><stop offset="1" stop-color="#bf8f68" stop-opacity="0"/></radialGradient><path d="M219.917 2.415l-.039.563a.938.938 0 0 1-.294.592c-.065.061-.096.21-.021.3.04.05.22.159.219.292l-.022.52h-1.06l.07-2.311z" fill="url(#d)"/><path d="M219.715 4.265c.097.01.451-.064.524-.104l.03-.017c.018-.01.051.023.052.028.01.194-.175.248-.286.296-.126.002-.308.011-.38-.148a.041.041 0 0 1 .02-.054c.006-.003.04-.001.04-.001z" fill="#9b643d"/><path d="M218.601 1.931s.3.154.676-.057c.32-.18.576.117.724.34.32.478.862.903 1.399.837.384-.047.493-1.3-.632-1.715-1.176-.434-2.167.595-2.167.595z" fill="#3a312e"/><path d="M220.857 3.879l.552.004c.22.002.4-.174.401-.394v-.032a.398.398 0 0 0-.394-.401l-.552-.005z" fill="#bf8f68"/><ellipse transform="matrix(0.0232,-0.9997,0.9997,0.0232,212.1216,225.4506)" cx="221.433" cy="4.175" rx=".279" ry=".268" fill="#f7c6c8"/><ellipse transform="matrix(1,-0.0067,0.0067,1,-0.0172,1.4694)" cx="219.306" cy="3.3" rx=".131" ry=".22" fill="#3a312e"/><circle cx="72.853" cy="93.914" r="3.968" fill="#b3afab"/><radialGradient id="e" cx="73.074" cy="-643.878" r="1.53" gradientTransform="matrix(1,0,0,-1,0,-548.3247)" gradientUnits="userSpaceOnUse"><stop offset="0" stop-color="#9a6541"/><stop offset="1" stop-color="#be906b"/></radialGradient><path d="M71.836 97.734a3.93 3.93 0 0 0 1.017.148c.416 0 .809-.082 1.185-.2l.022-1.652h-2.224z" fill="url(#e)"/><path d="M73.966 91.06a5.077 5.077 0 0 0-1.113 1.014s1.15.036 1.914 1.387c.113.208.127.633.04 1.278-.06.652-.032 1.07.042 1.235.091.292.43.889 1.464.915 1.22.03 1.678-.8 1.647-.793-.752.159-.781-.813-.781-.813.137-2.324.123-3.023.054-3.33-.246-1.091-1.015-1.283-1.35-1.366-.564-.113-1.203.045-1.917.472z" fill="#594539"/><path d="M75.112 91.276c-.601-.65-1.333-.983-2.196-1-.862-.012-1.606.299-2.23.932-.62.634-.937 1.404-.951 2.311-.014.911.28 1.692.88 2.342.602.65 1.334.98 2.197.993.862.012 1.606-.299 2.23-.932.62-.63.937-1.4.951-2.31.014-.908-.28-1.686-.88-2.336z" fill="#594539"/><ellipse cx="72.94" cy="94.147" rx="2.238" ry="3.071" fill="#be906b"/><radialGradient id="f" cx="-22.529" cy="-1417.852" r=".946" gradientTransform="matrix(1,0,0,-0.9918,95.35,-1311.2898)" gradientUnits="userSpaceOnUse"><stop offset="0" stop-color="#956d4e" stop-opacity=".878"/><stop offset=".937" stop-color="#a7754b" stop-opacity="0"/></radialGradient><path d="M72.907 93.36h-1.49v2.7h1.49z" fill="url(#f)"/><path d="M72.735 95.295c.114.057.172.091.172.102 0 0 .35-.766 0-1.342l-.047.203c-.057.16-.392.386-.414.64-.005.093.034.302.289.397z" fill="#be906b"/><path d="M73.611 95.844c-.06.232-.264.38-.497.448-.238.018-.469-.04-.613-.188a.132.132 0 0 1 .108-.222h.008c.172.019.307.061.425.02.124.003.228-.091.346-.17l.032-.022a.125.125 0 0 1 .191.134z" fill="#9a6541"/><ellipse cx="71.895" cy="94.312" rx=".208" ry=".346" fill="#3a312e"/><ellipse cx="73.913" cy="94.322" rx=".208" ry=".346" fill="#3a312e"/><circle cx="70.756" cy="94.614" r=".629" fill="#be906b"/><circle cx="75.113" cy="94.614" r=".629" fill="#be906b"/><path d="M75.282 91.738c-.023.007-.136.699-.388.91-.583-.895-1.362-.644-2.517.468-.96.924-2.71.932-3.381-.92.21.199.49.299 1.098-.54.754-1.04 1.716-1.482 2.86-1.378 1.133.103 1.76.612 2.328 1.46z" fill="#594539"/><circle cx="72.833" cy="37.782" r="3.968" fill="#e1dfdd"/><radialGradient id="g" cx="72.916" cy="-588.349" r="2.053" gradientTransform="matrix(1,0,0,-1,0,-548.3247)" gradientUnits="userSpaceOnUse"><stop offset=".173" stop-color="#724937"/><stop offset=".703" stop-color="#9b643d"/></radialGradient><path d="M74.125 38.298h-2.398v3.16c0 .04-.03.068-.044.103.366.111.747.189 1.15.189.464 0 .902-.095 1.316-.241a.258.258 0 0 1-.023-.093z" fill="url(#g)"/><circle cx="70.66" cy="36.315" r=".691" fill="#594539"/><circle cx="72.193" cy="33.498" r=".788" fill="#594539"/><circle cx="71.166" cy="34.043" r=".788" fill="#594539"/><circle cx="70.617" cy="35.13" r=".788" fill="#594539"/><circle cx="75.078" cy="36.315" r=".691" fill="#594539"/><circle cx="73.52" cy="33.529" r=".788" fill="#594539"/><circle cx="74.633" cy="34.073" r=".788" fill="#594539"/><circle cx="75.064" cy="35.273" r=".788" fill="#594539"/><path d="M74.261 38.207h-2.777c-.579 0-1.048-.47-1.048-1.048v-1.281a2.437 2.437 0 1 1 4.874 0v1.28c0 .58-.47 1.05-1.049 1.05z" fill="#594539"/><path d="M70.038 37.792a.775.775 0 0 0 .77.78c.03 0 .405-.002.433-.005.388-.04.344-.367.346-.766.003-.395.055-.723-.327-.773-.031-.004-.41-.006-.443-.006a.775.775 0 0 0-.78.77z" fill="#9b643d"/><path d="M72.872 40.606a2.063 2.063 0 0 1-2.064-2.063V36.38a2.063 2.063 0 1 1 4.127 0v2.163c0 1.14-.924 2.063-2.063 2.063z" fill="#9b643d"/><ellipse transform="matrix(0.0055,-1,1,0.0055,36.0467,110.8273)" cx="73.743" cy="37.291" rx=".307" ry=".166" fill="#3a312e"/><radialGradient id="h" cx="177.229" cy="-731.978" r="1.745" gradientTransform="matrix(0.9721,0.0123,0.0111,-0.8762,-91.2255,-605.4708)" gradientUnits="userSpaceOnUse"><stop offset=".173" stop-color="#724937"/><stop offset=".703" stop-color="#9b643d"/></radialGradient><path d="M71.307 39.832l1.505-.025.04-1.138a.254.254 0 0 0-.114-.213l-.365-.24a.174.174 0 0 1-.05-.24l.317-.493a.733.733 0 0 0 .117-.394l.006-1.74-1.58.024z" fill="url(#h)"/><ellipse transform="matrix(0.0055,-1,1,0.0055,34.2702,109.0217)" cx="71.947" cy="37.281" rx=".307" ry=".166" fill="#3a312e"/><path d="M75.728 37.792a.775.775 0 0 1-.771.78c-.029 0-.405-.002-.433-.005-.388-.04-.344-.367-.346-.766-.002-.395-.055-.723.327-.773.032-.004.41-.006.443-.006a.775.775 0 0 1 .78.77z" fill="#9b643d"/><path d="M73.585 39.092a.577.577 0 0 1-.147.347.764.764 0 0 1-.335.21.786.786 0 0 1-.393-.007.549.549 0 0 1-.306-.228.083.083 0 0 1 .076-.127h.01c.104.008.194 0 .274-.007.081-.009.157-.016.228-.043.15-.028.27-.102.457-.215l.01-.006a.082.082 0 0 1 .126.076z" fill="#855035"/><path d="M74.257 33.895h-2.77l-.866 1.312.172 1.815.231-1.326a.906.906 0 0 1 .887-.722h1.921c.43 0 .8.302.887.722l.23 1.327.173-1.816z" fill="#594539"/><circle cx="73.87" cy="34.647" r=".788" fill="#594539"/><circle cx="72.853" cy="51.521" r="3.968" fill="#8b8cc4"/><radialGradient id="i" cx="72.859" cy="-601.768" r="1.363" gradientTransform="matrix(1,0,0,-1,0,-548.3247)" gradientUnits="userSpaceOnUse"><stop offset="0" stop-color="#9b643d"/><stop offset=".451" stop-color="#b98963"/><stop offset=".99" stop-color="#e0bb95"/></radialGradient><path d="M72.068 53.004v1.82c-.008.26-.038.41-.156.54.303.075.615.125.94.125.378 0 .735-.07 1.08-.167-.08-.106-.126-.245-.11-.468l.01-1.85z" fill="url(#i)"/><path d="M75.705 50.357c-.023 1.697-1.316 3.051-2.89 3.025-1.572-.026-2.83-1.422-2.806-3.12.022-1.696.69-3.024 2.889-3.024 2.198 0 2.83 1.422 2.807 3.119z" fill="#fadcbd"/><path d="M71.7 52.493h-.937a.568.568 0 0 1-.569-.568v-.174c0-.314.255-.569.569-.569h.937zM74.036 52.493h.937a.568.568 0 0 0 .568-.568v-.174a.568.568 0 0 0-.568-.569h-.937z" fill="#e0bb95"/><path d="M74.843 53.88a.75.75 0 0 1 0-1.498.75.75 0 0 1 0 1.497zm0-1.197a.448.448 0 1 0 0 0zM70.85 53.88a.749.749 0 1 1 .002-1.499.749.749 0 0 1-.002 1.498zm0-1.197a.449.449 0 1 0 .002.898.449.449 0 0 0-.002-.898z" fill="#ee8f94"/><path d="M74.789 48.302c-.29-1.671-2.228-1.987-3.446-1.484-1.065.44-1.598 1.293-2.177.483 0 0-.834.739-.606 1.719.228.98 1.328 1.689 2.122 1.352.528-.223 1.019-1.115 2.036-1.682.844-.47 2.07-.388 2.07-.388z" fill="#fadcbd"/><path d="M75.06 51.167c0 1.667-.995 3.018-2.222 3.018-1.227 0-2.222-1.351-2.222-3.018 0-1.668.995-2.865 2.222-2.865 1.227 0 2.222 1.198 2.222 2.865z" fill="#e0bb95"/><ellipse transform="matrix(0.9999,-0.0149,0.0149,0.9999,-0.7565,1.105)" cx="73.777" cy="51.324" rx=".192" ry=".323" fill="#3a312e"/><radialGradient id="j" cx="73.629" cy="-600.303" r="1.441" gradientTransform="matrix(1,0,0,-1,0,-548.3247)" gradientUnits="userSpaceOnUse"><stop offset="0" stop-color="#9b643d"/><stop offset=".882" stop-color="#ba8a63" stop-opacity=".118"/><stop offset="1" stop-color="#bf8f68" stop-opacity="0"/></radialGradient><path d="M72.989 49.787l-.054.892c-.01.464-.253.868-.423 1.095a.271.271 0 0 0 .038.362c.166.153.375.39.384.611l-.027.532-1.334.115-.096-3.59z" fill="url(#j)"/><path d="M72.551 52.993c.371.013.519-.033.854-.188l.006-.003a.073.073 0 0 1 .102.076c-.028.221-.224.38-.441.44-.224.042-.471-.03-.587-.212a.073.073 0 0 1 .066-.113z" fill="#bf8f68"/><ellipse transform="matrix(0.9999,-0.0149,0.0149,0.9999,-0.7567,1.0771)" cx="71.908" cy="51.323" rx=".192" ry=".323" fill="#3a312e"/><path d="M75.254 48.804s-1.16-.689-2.416-.689c-1.255 0-2.422.688-2.422.688l-.288 2.363.492.058.398-1.74a.334.334 0 0 1 .323-.247l2.988.001c.15 0 .283.1.323.246l.408 1.74.481-.057z" fill="#fadcbd"/><path d="M126.845 15.293c0 .4-.06.79-.17 1.15-.5 1.62-2 2.8-3.79 2.8a3.96 3.96 0 0 1-3.78-2.8 3.95 3.95 0 0 1-.17-1.15 3.954 3.954 0 1 1 7.91 0z" fill="#8b8cc7"/><path d="M126.094 15.082a18.384 18.384 0 0 1-.121-1.19l-.029-.507a2.264 2.264 0 0 0-.129-.563 2.947 2.947 0 0 0-.341-.828 2.676 2.676 0 0 0-1.141-1.041 2.57 2.57 0 0 0-1.099-.25h-.863c-.375 0-.732.081-1.07.243-.304.138-.58.337-.827.599-.247.266-.437.57-.57.913-.143.356-.214.73-.214 1.12 0 .079.008.148.012.221l-.005.092c-.028.41-.069.806-.121 1.191-.037.256-.241.529-.593.816.028.187.069.37.123.546.5 1.62 2 2.8 3.78 2.8 1.79 0 3.29-1.18 3.79-2.8.046-.151.078-.31.106-.47-.413-.316-.648-.614-.688-.892z" fill="#dfbc97"/><path d="M122.885 19.244c.826 0 1.584-.26 2.216-.69a2.232 2.232 0 0 0-.652-.275 4.766 4.766 0 0 0-.305-.056c-.007 0-.013-.003-.02-.003h-.003c-.335-.049-.742-.083-1.23-.1-.658.02-1.182.076-1.572.171-.003.001-.006.004-.009.004-.238.039-.46.124-.673.234.639.446 1.41.715 2.248.715z" fill="#605d5a"/><path d="M120.845 14.498h-.149a.498.498 0 0 0-.364.153.506.506 0 0 0-.149.365c0 .143.051.266.153.369.1.099.22.148.365.148h.144z" fill="#f9ddbf"/><radialGradient id="k" cx="122.791" cy="-564.57" r="1.19" gradientTransform="matrix(1,0,0,-1,0,-548.3247)" gradientUnits="userSpaceOnUse"><stop offset="0" stop-color="#9a6541" stop-opacity=".847"/><stop offset="1" stop-color="#f9ddbf"/></radialGradient><path d="M122.85 18.484c-.51.014-.873-.076-1.092-.27.362-.094.44-.598.464-1.335l-.05-1.062 1.376-.015-.142 1.013c-.038.718-.017 1.305.385 1.398-.143.162-.457.252-.942.271z" fill="url(#k)"/><path d="M122.814 11.966c.56 0 1.037.183 1.433.549.4.37.6.815.6 1.333v1.313c0 .518-.2.96-.6 1.326-.396.371-.874.557-1.433.557h-.008c-.56 0-1.04-.186-1.44-.557-.396-.366-.594-.808-.594-1.326v-1.313c0-.518.198-.962.593-1.333.4-.366.881-.55 1.44-.55z" fill="#f9ddbf"/><radialGradient id="l" cx="-3506.523" cy="-1388.271" r=".865" gradientTransform="matrix(1,0,0,-0.9918,3629.1658,-1361.7799)" gradientUnits="userSpaceOnUse"><stop offset="0" stop-color="#9a6541" stop-opacity=".847"/><stop offset="1" stop-color="#f9ddbf" stop-opacity="0"/></radialGradient><path d="M122.72 16.123h-1.361v-2.467h1.362z" fill="url(#l)"/><path d="M123.814 14.74c-.033.057-.076.085-.128.085-.048 0-.09-.028-.128-.085a.444.444 0 0 1-.05-.214.476.476 0 0 1 .057-.214c.038-.057.08-.086.128-.086s.09.029.129.086c.033.062.05.133.05.214a.477.477 0 0 1-.058.214zM121.825 14.226c.047 0 .09.029.128.086a.51.51 0 0 1 .057.214c0 .08-.017.152-.05.214-.038.057-.08.086-.128.086s-.088-.029-.121-.086a.365.365 0 0 1-.058-.207.37.37 0 0 1 .043-.214c.034-.062.076-.093.129-.093z" fill="#33312d"/><path d="M122.72 15.517c0-.014-.035-.047-.106-.1a.748.748 0 0 1-.164-.156.331.331 0 0 1-.079-.207.277.277 0 0 1 .093-.193.825.825 0 0 0 .235-.385l.022-.185c.085.218.111.49.078.813-.019.161-.045.3-.078.413z" fill="#f9ddbf"/><path d="M124.79 11.82c.55 1.302.822 2.145.812 2.22a1.44 1.44 0 0 1-.677.165c-.39 0-.725-.131-1.006-.392a1.417 1.417 0 0 1-.456-.97h-1.27c-.019.38-.169.703-.45.97-.28.261-.615.392-1.005.392-.261 0-.501-.062-.72-.186-.005-.042.145-.397.45-1.062l.456-1.138h3.865z" fill="#dfbc97"/><radialGradient id="m" cx="2520.125" cy="531.359" r="1.997" gradientTransform="matrix(-1,0,0,1.0562,2644.1365,-550.3004)" gradientUnits="userSpaceOnUse"><stop offset="0" stop-color="#5c2c07" stop-opacity=".847"/><stop offset="1" stop-color="#be906b" stop-opacity="0"/></radialGradient><path d="M122.835 12.636h-1.07v-1.933h1.07z" fill="url(#m)"/><path d="M122.828 12.636a.334.334 0 0 1 .107-.214.294.294 0 0 1 .428 0 .31.31 0 0 1 .1.214v.207h-.635zM122.193 12.636a.334.334 0 0 1 .107-.214.294.294 0 0 1 .428 0c.06.055.093.127.1.214v.207h-.635zM122.486 16.044c.168-.013.285-.016.394-.053.114-.02.186-.054.343-.147l.014-.009a.079.079 0 0 1 .119.06.412.412 0 0 1-.096.308.589.589 0 0 1-.288.176c-.216.038-.458-.018-.568-.219a.078.078 0 0 1 .061-.115z" fill="#bf8f68"/><path d="M124.805 14.51h.148c.141 0 .262.05.365.153.099.102.148.224.148.364a.503.503 0 0 1-.153.37c-.1.099-.22.148-.364.148h-.144z" fill="#f9ddbf"/><path d="M126.845 36.118c0 .4-.06.79-.17 1.15-.5 1.62-2 2.8-3.79 2.8a3.96 3.96 0 0 1-3.78-2.8 3.95 3.95 0 0 1-.17-1.15 3.954 3.954 0 1 1 7.91 0z" fill="#8b8cc7"/><path d="M126.094 35.907a18.384 18.384 0 0 1-.121-1.191l-.029-.506a2.264 2.264 0 0 0-.129-.564 2.947 2.947 0 0 0-.341-.827 2.676 2.676 0 0 0-1.141-1.041 2.57 2.57 0 0 0-1.099-.25h-.863c-.375 0-.732.08-1.07.242-.304.138-.58.338-.827.6-.247.266-.437.57-.57.912-.143.357-.214.73-.214 1.12 0 .08.008.149.012.222l-.005.092c-.028.409-.069.806-.121 1.191-.037.256-.241.528-.593.816.028.187.069.37.123.545.5 1.62 2 2.8 3.78 2.8 1.79 0 3.29-1.18 3.79-2.8.046-.15.078-.31.106-.47-.413-.315-.648-.613-.688-.891z" fill="#dfbc97"/><path d="M122.885 40.068c.826 0 1.584-.26 2.216-.689a2.232 2.232 0 0 0-.652-.275 4.766 4.766 0 0 0-.305-.056c-.007 0-.013-.003-.02-.004l-.003.001c-.335-.05-.742-.083-1.23-.1-.658.019-1.182.076-1.572.171-.003 0-.006.003-.009.004-.238.039-.46.124-.673.233.639.446 1.41.715 2.248.715z" fill="#605d5a"/><path d="M120.845 35.323h-.149a.498.498 0 0 0-.364.153.506.506 0 0 0-.149.364c0 .144.051.267.153.37.1.099.22.148.365.148h.144z" fill="#f9ddbf"/><radialGradient id="n" cx="122.791" cy="-585.395" r="1.19" gradientTransform="matrix(1,0,0,-1,0,-548.3247)" gradientUnits="userSpaceOnUse"><stop offset="0" stop-color="#9a6541" stop-opacity=".847"/><stop offset="1" stop-color="#f9ddbf"/></radialGradient><path d="M122.85 39.309c-.51.014-.873-.076-1.092-.271.362-.093.44-.597.464-1.334l-.05-1.063 1.376-.014-.142 1.013c-.038.718-.017 1.305.385 1.398-.143.162-.457.252-.942.27z" fill="url(#n)"/><path d="M122.814 32.79c.56 0 1.037.183 1.433.55.4.37.6.815.6 1.333v1.312c0 .519-.2.96-.6 1.327-.396.37-.874.556-1.433.556h-.008c-.56 0-1.04-.185-1.44-.556-.396-.366-.594-.808-.594-1.326v-1.313c0-.518.198-.963.593-1.334.4-.366.881-.549 1.44-.549z" fill="#f9ddbf"/><radialGradient id="o" cx="-3506.523" cy="-1409.269" r=".865" gradientTransform="matrix(1,0,0,-0.9918,3629.1658,-1361.7799)" gradientUnits="userSpaceOnUse"><stop offset="0" stop-color="#9a6541" stop-opacity=".847"/><stop offset="1" stop-color="#f9ddbf" stop-opacity="0"/></radialGradient><path d="M122.72 36.948h-1.361V34.48h1.362z" fill="url(#o)"/><path d="M123.814 35.565c-.033.057-.076.085-.128.085-.048 0-.09-.028-.128-.085a.444.444 0 0 1-.05-.214.476.476 0 0 1 .057-.214c.038-.057.08-.086.128-.086s.09.029.129.086c.033.061.05.133.05.214a.477.477 0 0 1-.058.214zM121.825 35.051c.047 0 .09.029.128.086a.51.51 0 0 1 .057.214c0 .08-.017.152-.05.214-.038.057-.08.085-.128.085s-.088-.028-.121-.085a.365.365 0 0 1-.058-.207.37.37 0 0 1 .043-.214c.034-.062.076-.093.129-.093z" fill="#33312d"/><path d="M122.72 36.342c0-.014-.035-.048-.106-.1a.748.748 0 0 1-.164-.157.331.331 0 0 1-.079-.207.277.277 0 0 1 .093-.192.825.825 0 0 0 .235-.385l.022-.186c.085.22.111.49.078.813-.019.162-.045.3-.078.414z" fill="#f9ddbf"/><path d="M124.79 32.644c.55 1.303.822 2.146.812 2.222a1.44 1.44 0 0 1-.677.164c-.39 0-.725-.131-1.006-.393a1.417 1.417 0 0 1-.456-.97h-1.27c-.019.38-.169.704-.45.97-.28.262-.615.393-1.005.393-.261 0-.501-.062-.72-.186-.005-.042.145-.397.45-1.062l.456-1.138z" fill="#dfbc97"/><radialGradient id="p" cx="2520.125" cy="551.075" r="1.997" gradientTransform="matrix(-1,0,0,1.0562,2644.1365,-550.3004)" gradientUnits="userSpaceOnUse"><stop offset="0" stop-color="#5c2c07" stop-opacity=".847"/><stop offset="1" stop-color="#be906b" stop-opacity="0"/></radialGradient><path d="M122.835 33.46h-1.07v-1.932h1.07z" fill="url(#p)"/><path d="M122.828 33.46a.334.334 0 0 1 .107-.213.294.294 0 0 1 .428 0 .31.31 0 0 1 .1.214v.207h-.635zM122.193 33.46a.334.334 0 0 1 .107-.213.294.294 0 0 1 .428 0c.06.055.093.127.1.214v.207h-.635zM122.486 36.868c.168-.012.285-.016.394-.052.114-.02.186-.055.343-.147l.014-.009a.079.079 0 0 1 .119.06.412.412 0 0 1-.096.308.589.589 0 0 1-.288.176c-.216.038-.458-.019-.568-.22a.078.078 0 0 1 .061-.114z" fill="#bf8f68"/><path d="M124.805 35.334h.148c.141 0 .262.052.365.154.099.102.148.224.148.364a.503.503 0 0 1-.153.37c-.1.099-.22.148-.364.148h-.144z" fill="#f9ddbf"/><path d="M126.845 65.078c0 .4-.06.79-.17 1.15-.5 1.62-2 2.8-3.79 2.8a3.96 3.96 0 0 1-3.78-2.8 3.95 3.95 0 0 1-.17-1.15 3.954 3.954 0 1 1 7.91 0z" fill="#8b8cc7"/><path d="M126.094 64.866a18.384 18.384 0 0 1-.121-1.19l-.029-.507a2.264 2.264 0 0 0-.129-.563 2.947 2.947 0 0 0-.341-.828 2.676 2.676 0 0 0-1.141-1.041 2.57 2.57 0 0 0-1.099-.25h-.863c-.375 0-.732.081-1.07.243-.304.138-.58.337-.827.599-.247.266-.437.57-.57.913-.143.356-.214.73-.214 1.12 0 .079.008.148.012.221l-.005.092c-.028.41-.069.806-.121 1.191-.037.256-.241.529-.593.816.028.187.069.37.123.546.5 1.62 2 2.8 3.78 2.8 1.79 0 3.29-1.18 3.79-2.8.046-.151.078-.31.106-.47-.413-.316-.648-.614-.688-.892z" fill="#dfbc97"/><path d="M122.885 69.028c.826 0 1.584-.26 2.216-.69a2.232 2.232 0 0 0-.652-.274 4.766 4.766 0 0 0-.305-.056c-.007-.001-.013-.004-.02-.004h-.003c-.335-.049-.742-.083-1.23-.1-.658.02-1.182.076-1.572.172-.003 0-.006.003-.009.004-.238.038-.46.123-.673.233.639.446 1.41.715 2.248.715z" fill="#605d5a"/><path d="M120.845 64.282h-.149a.498.498 0 0 0-.364.153.506.506 0 0 0-.149.365c0 .144.051.267.153.369.1.099.22.149.365.149h.144z" fill="#f9ddbf"/><radialGradient id="q" cx="122.791" cy="-614.354" r="1.19" gradientTransform="matrix(1,0,0,-1,0,-548.3247)" gradientUnits="userSpaceOnUse"><stop offset="0" stop-color="#9a6541" stop-opacity=".847"/><stop offset="1" stop-color="#f9ddbf"/></radialGradient><path d="M122.85 68.268c-.51.014-.873-.076-1.092-.27.362-.094.44-.598.464-1.335l-.05-1.062 1.376-.015-.142 1.013c-.038.718-.017 1.305.385 1.398-.143.162-.457.252-.942.271z" fill="url(#q)"/><path d="M122.814 61.75c.56 0 1.037.183 1.433.549.4.37.6.815.6 1.334v1.312c0 .518-.2.96-.6 1.326-.396.371-.874.557-1.433.557h-.008c-.56 0-1.04-.186-1.44-.557-.396-.366-.594-.808-.594-1.326v-1.312c0-.519.198-.963.593-1.334.4-.366.881-.55 1.44-.55z" fill="#f9ddbf"/><radialGradient id="r" cx="-3506.523" cy="-1438.469" r=".865" gradientTransform="matrix(1,0,0,-0.9918,3629.1658,-1361.7799)" gradientUnits="userSpaceOnUse"><stop offset="0" stop-color="#9a6541" stop-opacity=".847"/><stop offset="1" stop-color="#f9ddbf" stop-opacity="0"/></radialGradient><path d="M122.72 65.907h-1.361V63.44h1.362z" fill="url(#r)"/><path d="M123.814 64.524c-.033.057-.076.085-.128.085-.048 0-.09-.028-.128-.085a.444.444 0 0 1-.05-.214.476.476 0 0 1 .057-.214c.038-.057.08-.086.128-.086s.09.029.129.086c.033.062.05.133.05.214a.477.477 0 0 1-.058.214zM121.825 64.01c.047 0 .09.029.128.086a.51.51 0 0 1 .057.214c0 .08-.017.152-.05.214-.038.057-.08.086-.128.086s-.088-.029-.121-.086a.365.365 0 0 1-.058-.207.37.37 0 0 1 .043-.214c.034-.062.076-.093.129-.093z" fill="#33312d"/><path d="M122.72 65.301c0-.014-.035-.047-.106-.1a.748.748 0 0 1-.164-.156.331.331 0 0 1-.079-.207.277.277 0 0 1 .093-.193.825.825 0 0 0 .235-.385l.022-.185c.085.218.111.49.078.813a2.57 2.57 0 0 1-.078.413z" fill="#f9ddbf"/><path d="M124.79 61.603c.55 1.303.822 2.146.812 2.222a1.44 1.44 0 0 1-.677.164c-.39 0-.725-.13-1.006-.392a1.417 1.417 0 0 1-.456-.97h-1.27c-.019.38-.169.703-.45.97-.28.261-.615.392-1.005.392-.261 0-.501-.062-.72-.185-.005-.043.145-.398.45-1.063l.456-1.138z" fill="#dfbc97"/><radialGradient id="s" cx="2520.125" cy="578.492" r="1.997" gradientTransform="matrix(-1,0,0,1.0562,2644.1365,-550.3004)" gradientUnits="userSpaceOnUse"><stop offset="0" stop-color="#5c2c07" stop-opacity=".847"/><stop offset="1" stop-color="#be906b" stop-opacity="0"/></radialGradient><path d="M122.835 62.42h-1.07v-1.933h1.07z" fill="url(#s)"/><path d="M122.828 62.42a.334.334 0 0 1 .107-.214.294.294 0 0 1 .428 0 .31.31 0 0 1 .1.214v.207h-.635zM122.193 62.42a.334.334 0 0 1 .107-.214.294.294 0 0 1 .428 0 .31.31 0 0 1 .1.214v.207h-.635zM122.486 65.828c.168-.013.285-.016.394-.053.114-.02.186-.054.343-.147l.014-.009a.079.079 0 0 1 .119.06.412.412 0 0 1-.096.308.589.589 0 0 1-.288.176c-.216.038-.458-.018-.568-.219a.078.078 0 0 1 .061-.115z" fill="#bf8f68"/><path d="M124.805 64.294h.148c.141 0 .262.05.365.153.099.103.148.224.148.365a.503.503 0 0 1-.153.369c-.1.099-.22.148-.364.148h-.144z" fill="#f9ddbf"/><path d="M76.821 23.994c0 .4-.06.79-.17 1.15-.5 1.62-2 2.8-3.79 2.8a3.96 3.96 0 0 1-3.78-2.8 3.95 3.95 0 0 1-.17-1.15 3.954 3.954 0 1 1 7.91 0z" fill="#8b8cc7"/><path d="M76.07 23.782a18.384 18.384 0 0 1-.121-1.19l-.029-.507a2.264 2.264 0 0 0-.13-.563 2.947 2.947 0 0 0-.34-.827 2.676 2.676 0 0 0-1.142-1.042 2.57 2.57 0 0 0-1.098-.25h-.863c-.375 0-.732.081-1.07.243-.304.138-.58.338-.827.6-.247.266-.437.57-.57.912-.143.357-.215.73-.215 1.12 0 .08.008.149.013.222l-.005.092c-.029.409-.07.806-.122 1.19-.036.257-.24.53-.593.816.029.188.07.37.123.546.5 1.62 2 2.8 3.78 2.8 1.79 0 3.29-1.18 3.79-2.8.046-.151.078-.31.106-.47-.413-.316-.647-.613-.687-.892z" fill="#dfbc97"/><path d="M72.861 27.944c.826 0 1.584-.26 2.216-.69a2.232 2.232 0 0 0-.652-.274 4.766 4.766 0 0 0-.305-.056c-.008 0-.014-.004-.021-.004h-.002c-.335-.049-.742-.083-1.23-.1-.658.02-1.182.077-1.572.172-.003 0-.006.003-.009.004-.238.038-.46.123-.673.233.639.446 1.41.715 2.248.715z" fill="#605d5a"/><path d="M70.82 23.198h-.148a.498.498 0 0 0-.365.154.506.506 0 0 0-.148.364c0 .144.05.267.153.37.1.098.22.148.365.148h.143v-1.036z" fill="#f9ddbf"/><radialGradient id="t" cx="72.766" cy="-573.27" r="1.19" gradientTransform="matrix(1,0,0,-1,0,-548.3247)" gradientUnits="userSpaceOnUse"><stop offset="0" stop-color="#9a6541" stop-opacity=".847"/><stop offset="1" stop-color="#f9ddbf"/></radialGradient><path d="M72.825 27.184c-.509.015-.873-.076-1.091-.27.362-.094.44-.597.463-1.334l-.05-1.063 1.377-.014-.143 1.012c-.038.718-.017 1.305.385 1.398-.142.162-.456.252-.941.271z" fill="url(#t)"/><path d="M72.79 20.666c.56 0 1.037.183 1.432.549.4.37.601.815.601 1.334v1.312c0 .518-.2.96-.6 1.327-.396.37-.874.556-1.433.556h-.008c-.56 0-1.04-.186-1.44-.556-.396-.367-.594-.809-.594-1.327v-1.312c0-.519.198-.963.593-1.334.4-.366.881-.55 1.44-.55z" fill="#f9ddbf"/><radialGradient id="u" cx="-3556.548" cy="-1397.044" r=".865" gradientTransform="matrix(1,0,0,-0.9918,3629.1658,-1361.7799)" gradientUnits="userSpaceOnUse"><stop offset="0" stop-color="#9a6541" stop-opacity=".847"/><stop offset="1" stop-color="#f9ddbf" stop-opacity="0"/></radialGradient><path d="M72.697 24.824h-1.363v-2.468h1.362z" fill="url(#u)"/><path d="M73.79 23.44c-.033.057-.076.086-.128.086-.048 0-.09-.029-.129-.086a.444.444 0 0 1-.05-.214.473.473 0 0 1 .057-.214c.039-.057.081-.085.129-.085.047 0 .09.028.128.085.034.062.05.133.05.214a.473.473 0 0 1-.057.214zM71.8 22.927c.048 0 .09.028.129.085a.51.51 0 0 1 .057.214c0 .081-.017.152-.05.214-.038.057-.08.086-.129.086-.047 0-.087-.029-.12-.086a.365.365 0 0 1-.058-.207.376.376 0 0 1 .043-.214c.033-.061.076-.092.128-.092z" fill="#33312d"/><path d="M72.697 24.218c0-.015-.036-.048-.108-.1a.748.748 0 0 1-.163-.157.331.331 0 0 1-.079-.207.276.276 0 0 1 .093-.193.825.825 0 0 0 .235-.385l.022-.185c.085.219.111.49.078.813-.02.162-.045.3-.079.414z" fill="#f9ddbf"/><path d="M74.765 20.52c.551 1.303.822 2.145.813 2.221a1.44 1.44 0 0 1-.678.164c-.39 0-.725-.13-1.005-.392a1.416 1.416 0 0 1-.457-.97h-1.27c-.018.38-.168.704-.449.97-.28.261-.615.392-1.005.392-.262 0-.502-.062-.72-.185-.005-.043.145-.397.449-1.063l.456-1.137h3.866z" fill="#dfbc97"/><radialGradient id="v" cx="2570.149" cy="539.596" r="1.997" gradientTransform="matrix(-1,0,0,1.0562,2644.1365,-550.3004)" gradientUnits="userSpaceOnUse"><stop offset="0" stop-color="#5c2c07" stop-opacity=".847"/><stop offset="1" stop-color="#be906b" stop-opacity="0"/></radialGradient><path d="M72.81 21.336h-1.07v-1.933h1.07z" fill="url(#v)"/><path d="M72.803 21.336a.332.332 0 0 1 .108-.214.294.294 0 0 1 .427 0 .31.31 0 0 1 .1.214v.207h-.634z" fill="#bf8f68"/><path d="M72.169 21.336a.332.332 0 0 1 .107-.214.294.294 0 0 1 .428 0 .31.31 0 0 1 .1.214v.207h-.635zM72.462 24.744c.168-.013.285-.016.394-.052.114-.02.186-.055.342-.148l.015-.008a.079.079 0 0 1 .118.06.412.412 0 0 1-.095.307.589.589 0 0 1-.289.176c-.215.038-.458-.018-.568-.219a.078.078 0 0 1 .062-.114z" fill="#bf8f68"/><path d="M74.78 23.21h.15c.14 0 .261.051.363.153.1.103.15.224.15.365a.503.503 0 0 1-.154.37c-.1.098-.22.148-.365.148h-.144z" fill="#f9ddbf"/><circle cx="72.853" cy="79.372" r="3.968" fill="#e1dfdd"/><radialGradient id="w" cx="72.894" cy="-629.338" r="2.233" gradientTransform="matrix(1,0,0,-1,0,-548.3247)" gradientUnits="userSpaceOnUse"><stop offset=".067" stop-color="#9b643d"/><stop offset=".847" stop-color="#e0bb95"/></radialGradient><path d="M72.853 83.34c.468 0 .91-.095 1.327-.244a.481.481 0 0 1-.201-.386v-1.716l-2.025.063-.002 1.703c0 .183-.128.33-.3.376.381.121.78.205 1.2.205z" fill="url(#w)"/><path d="M75.284 76.034l-4.992.028-.362-.186.36-.19 4.992-.028c.086 0 .158.084.158.187 0 .104-.07.189-.156.19z" fill="#ee8f94"/><linearGradient id="x" gradientUnits="userSpaceOnUse" x1="796.016" y1="-1381.403" x2="797.948" y2="-1383.954" gradientTransform="matrix(0.9584,0.2854,0.2854,-0.9584,-296.422,-1477.4038)"><stop offset=".269" stop-color="#594539"/><stop offset=".811" stop-color="#463228"/></linearGradient><circle cx="72.844" cy="75.361" r="1.599" fill="url(#x)"/><circle cx="72.839" cy="79.11" r="3.15" fill="#59453c"/><ellipse cx="72.851" cy="79.717" rx="2.363" ry="2.74" fill="#e0bb95"/><path d="M70.348 79.647a.592.592 0 0 0-.227.418.57.57 0 0 0 .136.45c.107.135.247.21.418.228a.588.588 0 0 0 .464-.143.585.585 0 0 0 .228-.404.728.728 0 0 0-.136-.465.668.668 0 0 0-.432-.22.596.596 0 0 0-.45.136zM74.538 79.647a.592.592 0 0 0-.227.418.57.57 0 0 0 .135.45c.108.135.247.21.418.228a.588.588 0 0 0 .465-.143.585.585 0 0 0 .228-.404.728.728 0 0 0-.137-.465.668.668 0 0 0-.431-.22.596.596 0 0 0-.451.136z" fill="#e0bb95"/><path d="M70.629 77.427c-.576.798-.687 1.618-.46 2.49.353-.525.7-.351 1.198-.482.641-.169 1.343-.133 1.826-.626.62-.635.671-1.682.62-2.207-.014-.136-2.279-.359-3.185.825z" fill="#594539"/><path d="M73.7 77.059c-.22.539-.151 2.463 1.829 2.57.03-.808.116-1.598-.342-2.235-.445-.574-1.15-1.162-1.488-.335z" fill="#594539"/><path d="M73.896 81.061a.95.95 0 0 1 0-1.897.95.95 0 0 1 0 1.897zm0-1.667a.72.72 0 0 0 0 1.437.72.72 0 0 0 0-1.437zM71.832 81.087a.95.95 0 1 1 .949-.95.95.95 0 0 1-.949.95zm0-1.667a.72.72 0 1 0 .002 1.438.72.72 0 0 0-.002-1.438z" fill="#9b643d"/><path d="M72.665 80.036a.115.115 0 0 1 0-.23l.391-.006h.002a.115.115 0 0 1 .001.23l-.392.006h-.002z" fill="#9b643d"/><ellipse transform="matrix(0.0043,-1,1,0.0043,-8.5137,151.6562)" cx="71.898" cy="80.103" rx=".316" ry=".168" fill="#33312d"/><ellipse transform="matrix(0.0043,-1,1,0.0043,-6.6091,153.5853)" cx="73.819" cy="80.111" rx=".316" ry=".168" fill="#33312d"/><path d="M73.183 81.636c-.154.11-.334.122-.52.105-.182-.04-.362-.158-.43-.326a.099.099 0 0 1 .137-.125l.01.005c.128.067.219.13.343.143.114.043.251.02.385.022h.02a.096.096 0 0 1 .055.176z" fill="#bf8f68"/><circle cx="72.894" cy="65.724" r="3.968" fill="#e1dfdd"/><radialGradient id="y" cx="-39.038" cy="-697.029" r="1.174" gradientTransform="matrix(0.9549,0,0,-0.8982,109.0464,-560.3799)" gradientUnits="userSpaceOnUse"><stop offset="0" stop-color="#9b643d"/><stop offset="1" stop-color="#bf8f68" stop-opacity="0"/></radialGradient><path d="M72.726 66.113c.012-.311-.551-.277-.254-.771.092-.153.168-.453.273-.76l.415.022-.06 1.534z" fill="url(#y)"/><path d="M72.894 69.692c.988 0 1.88-.374 2.575-.97a1.46 1.46 0 0 1-.332-1.9l.33-.538-2.595.118-2.596-.118.331.538c.382.62.237 1.414-.313 1.878.698.61 1.6.992 2.6.992z" fill="#8b8cc4"/><ellipse cx="72.874" cy="64.615" rx="3.015" ry="3.289" fill="#8b8cc7"/><radialGradient id="z" cx="-665.307" cy="-618.462" r="4.406" gradientTransform="matrix(0.8475,0,0,-1,634.6644,-548.3247)" gradientUnits="userSpaceOnUse"><stop offset="0" stop-color="#4b4c75"/><stop offset="1" stop-color="#6d6fab" stop-opacity="0"/></radialGradient><path d="M70.6 66.775c.611.85 1.116 1.994 2.313 1.677.636-.168.943-.679 1.976-.253 0 0-.261-.389-.126-1.233.09-.563.126-1.478.126-1.478s-5.434-.307-4.288 1.287z" fill="url(#z)"/><ellipse cx="72.874" cy="65.176" rx="2.127" ry="2.32" fill="#e0bb95"/><path d="M71.306 66.358l.009.007-.008-.007" fill="#6f50a1"/><radialGradient id="A" cx="-333.224" cy="830.645" r=".955" gradientTransform="matrix(-0.9013,0.0612,0.0325,0.8392,-254.4532,-611.1378)" gradientUnits="userSpaceOnUse"><stop offset="0" stop-color="#9b643d"/><stop offset="1" stop-color="#bf8f68" stop-opacity="0"/></radialGradient><path d="M72.9 66.091a.217.217 0 0 0-.116-.21c-.156-.083-.343-.22-.137-.54.095-.148.225-.236.186-.894l-1.197-.032-.041 2.029 1.296.015z" fill="url(#A)"/><path d="M73.897 64.923c0 .17-.08.306-.179.306-.099 0-.18-.136-.18-.305 0-.169.08-.306.179-.306.099 0 .18.136.18.305M72.23 64.922c.002.169-.077.307-.175.307-.1.001-.181-.135-.183-.304-.001-.169.077-.306.177-.307.099-.001.18.135.182.304" fill="#484643"/><path d="M73.47 66.345c-.053.205-.237.283-.387.34-.16.027-.357.029-.49-.113a.104.104 0 0 1 .068-.175l.035-.002c.107-.008.201-.006.303-.044.109-.01.19-.067.266-.107l.048-.025a.11.11 0 0 1 .157.126z" fill="#bf8f68"/><path d="M72.644 61.656s-.696.568 1.426 1.906c1.22.769.994 2.136.733 2.722 0 0 1.52-1.508-.134-3.218-.895-.927-2.025-1.41-2.025-1.41z" fill="#8b8cc4"/></g><g><path d="M261.228 79.86h11.198c1.09 0 1.972-.882 1.972-1.971V66.73c0-1.09-.883-1.972-1.972-1.972h-11.198c-1.09 0-1.972.883-1.972 1.972v11.158c0 1.089.883 1.972 1.972 1.972z" fill="#ffd590"/><path d="M275.863 40.574c2.64-2.232 2.858-4.61 2.625-7.375-.691-8.184-13.108-7.744-13.483-.636-.08 1.522.862 5.826.527 8.118-.182 1.247-.721 1.688-.721 1.688s7.686 1.052 11.052-1.795z" fill="#3a312e"/><path d="M270.294 61.386l-3.84 2.904s-7.164 41.018-8.985 43.494c-.905 1.229-2.927 3.126-4.984 3.831-.483.165-1.99.545-.228.944 1.764.398 3.544-1.16 5.211-1.223 1.668-.062 1.69-.652 1.785-1.386.733-5.639 12.61-25.666 14.27-32.614 1.878-7.869-3.23-15.95-3.23-15.95z" fill="#bd8e67"/><path d="M270.705 57.263c.927-.799 8.569 7.056 8.569 7.056s2.264 4.748-.21 16.778c-1.824 8.862-6.214 27.968-4.816 28.756.532.3 1.824.84 3.895 1.512.593.193.642 1.126-.279 1.126h-5.17c-.946 0-1.22-.197-.989-1.687.23-1.49-1.366-36.88-1.366-36.88s-.562-15.862.366-16.661z" fill="#bd8e67"/><path d="M272.694 112.492h5.175c.92 0 .87-.931.276-1.125a32.625 32.625 0 0 1-.747-.246h-.01c-.204.01-.44.041-.685.092-1.074.215-3.65.532-5.062.184-.062.951.255 1.095 1.053 1.095zM252.254 112.563c1.77.399 3.549-1.166 5.215-1.227 1.596-.061 1.688-.603 1.77-1.299-1.258.379-3.17.951-3.876 1.064-.522.092-1.207.092-1.913.092a6.09 6.09 0 0 1-.96.42c-.492.163-1.995.551-.236.95z" fill="#e3646a"/><path d="M265.912 61.693s-3.51 17.108-6.157 20.646c-2.877 3.845-3.213 7.114-1.944 6.76 1.875-.521 6.577-.045 9.016.511 3.243.74 7.631 1.644 12.898.29 3.409-.875 2.889-20.757-.937-28.003z" fill="#28c2d1"/><path d="M278.789 61.897c-.043-.277-1.68-6.4.244-11.338.546-.767.857-1.64.857-2.568 0-3.036-3.312-5.497-7.396-5.497-4.086 0-7.062 2.632-7.062 5.668 0 .962-.001 1.695.583 2.482.58 2.77.222 9.988-.103 11.05.56.019 12.876.205 12.877.203z" fill="#e3646a"/><path d="M272.098 44.058c1.277 0 2.936-.443 3.926-.901-1.082-.493-2.473-.67-3.709-.67-1.267 0-2.624.333-3.626.877.972.433 2.17.694 3.41.694z" fill="#bf8f68"/><path d="M280.163 62.69s-.24.142-.404.056c-.573-.3-1.646-1.075-2.066-1.052-.367.02-1.146.245-1.392.343a.603.603 0 0 0-.288.244c-.18.29-.5.867-.256.937.202.057.44-.404.77-.627.329-.223.682-.178.682-.178s-.683.178-1.06.535c-.345.328-.432 1.057-.206 1.255.132.116.28-.198.28-.198s.313.697.665.544c.12-.052.098-.451.286-.693a.588.588 0 0 1 .051-.057c.224-.22.578-.239.848-.08.473.279.78.719 1.405.86.7.158 1.502-.315 1.502-.315z" fill="#bd8e67"/><path d="M282.667 56.323c-.164-.684-.752-.516-.863-.878-.15-.484.395-.932-.022-1.367-2.188-2.28-6.929-.511-6.929-.511l1.171-10.41s9.452 3.474 10.077 12.84" fill="#e3646a"/><path d="M286.1 55.998c.175 6.243-5.12 8.266-5.12 8.266l-.817-1.573s3.499-2.213 2.504-6.368" fill="#bd8e67"/><radialGradient id="B" cx="38.562" cy="39.135" r="2.856" gradientTransform="matrix(-1,0,0,1,309.2565,0)" gradientUnits="userSpaceOnUse"><stop offset="0" stop-color="#9b643d"/><stop offset=".225" stop-color="#a6714a"/><stop offset=".696" stop-color="#b88760"/><stop offset="1" stop-color="#bf8f68"/></radialGradient><path d="M269.432 43.022c.986-.5 1.258-.71 1.258-2.29l-.143-4.432 3.414-.152-.143 4.431c0 1.58.443 1.792 1.43 2.29l-2.908.464z" fill="url(#B)"/><path d="M268.986 39.945c-1.353-.052-2.163-1.197-2.163-2.674v-4.12c-.102-2.77 4.913-2.07 4.913-2.07 3.001 0 2.057 4.463 2.057 4.463 0 2.456-1.803 4.517-4.807 4.401z" fill="#bf8f68"/><path d="M266.824 34.271c-.004 1.514-.591 1.523-.895 2.018a.443.443 0 0 0 .177.596c.33.187.686.258.759.95 0 0 1.036-.467 1.095-1.737.055-1.205-1.136-1.827-1.136-1.827z" fill="#bf8f68"/><path d="M273.592 35.275l1.522 1.157s.817-.927.817-2.726-1.075-2.941-2.791-2.69l-1.052.066v3.017c0 .726.673 1.176 1.504 1.176z" fill="#7f5d46"/><path d="M272.788 37.59h1.5a1.158 1.158 0 1 0 0-2.315h-1.5z" fill="#bd8e67"/><ellipse transform="matrix(0.0149,-0.9999,0.9999,0.0149,228.9333,302.9492)" cx="268.219" cy="35.287" rx=".614" ry=".309" fill="#3a312e"/><radialGradient id="C" cx="-43.759" cy="33.453" r=".024" gradientTransform="matrix(-0.9729,0.2312,-0.2438,-1.0257,235.5256,77.8851)" gradientUnits="userSpaceOnUse"><stop offset="0" stop-color="#9b643d"/><stop offset=".882" stop-color="#ba8a63" stop-opacity=".118"/><stop offset="1" stop-color="#bf8f68" stop-opacity="0"/></radialGradient><path fill="url(#C)" d="M269.934 33.422h.052v.052h-.052z"/><ellipse transform="matrix(0.0149,-0.9999,0.9999,0.0149,230.8704,312.3017)" cx="273.934" cy="38.98" rx="1.517" ry="1.456" fill="none" stroke="#f7c854" stroke-width=".246" stroke-miterlimit="10"/><path d="M267.608 37.905c.255.012.399.01.548-.062.162-.047.305-.167.525-.295l.007-.004a.098.098 0 0 1 .147.087c-.006.292-.214.542-.504.67-.301.11-.682.009-.82-.25a.099.099 0 0 1 .091-.146z" fill="#9b643d"/><path d="M263.922 55.498c1.463-2.373 5.51-2.071 5.51-2.071s-.084-9.054-1.468-10.094c-3.838 1.36-6.278 6.09-9.567 11.354-2.228 3.567 2.402 5.873 5.525.81z" fill="#e3646a"/><path d="M269.737 42.882l-2.68 3.283-4.516 20.197h-1.742l4.517-20.197 2.175-2.665c.32-.391.798-.618 1.304-.618z" fill="#f7b548"/><path d="M263.774 48.975l1.294-2.38a.887.887 0 0 1 .695-.458l1.532-.145a.51.51 0 0 1 .178 1.003l-.117.031-.11 1.464a.702.702 0 0 1-.647.648l-.44.032-.929 1.04a1.28 1.28 0 0 1-.82.421s-2.007 4.921-3.289 6.24c-1.281 1.318-4.022-.823-2.093-2.378 1.771-1.428 4.746-5.518 4.746-5.518z" fill="#bf8f68"/><path d="M263.06 69.138v-2.492a.493.493 0 0 0-.493-.492h-1.655a.493.493 0 0 0-.492.492v2.492" fill="none" stroke="#f7b548" stroke-width=".497" stroke-linecap="round" stroke-miterlimit="10"/><path d="M262.68 71.177v-1.922a.531.531 0 0 0-.531-.531h-.818a.531.531 0 0 0-.532.531v1.922c0 .293.238.531.532.531h.818a.531.531 0 0 0 .531-.531z" fill="#f7b548"/><path fill="#605d5a" d="M272.117 31.081h-2.174v-1.006h2.174z"/><path d="M272.13 31.082s-.014-1.006-.996-.95c-1.293.073-1.192 4.275-5.25 4.275 0 0-.406-2.538 1.349-4.835.975-1.276 3.167-1.81 4.39-.833 1.06.847.507 2.343.507 2.343z" fill="#3a312e"/></g><g><linearGradient id="D" gradientUnits="userSpaceOnUse" x1="37.358" y1="77.978" x2="38.202" y2="88.624"><stop offset=".001" stop-color="#bf8f68"/><stop offset="1" stop-color="#e0bb95"/></linearGradient><path d="M42.022 79.538c.579-7.61.547-13.046.547-13.046s.11-3.97-5.435-5.173c-4.126-.895-7.006 3.07-6.786 5.524.935 10.452 4.818 40.342 4.818 40.342h.007c.034.753.65 1.36 1.42 1.376.8.016 1.463-.61 1.484-1.402.877-5.323 3.466-21.322 3.945-27.621z" fill="url(#D)"/><path d="M23.78 79.147c0-7.633.444-13.05.444-13.05s.191-3.966 5.812-4.745c4.181-.58 7.25 1.8 6.844 4.229-1.725 10.35-8.36 41.654-8.36 41.654h-.007a1.447 1.447 0 0 1-1.521 1.263 1.447 1.447 0 0 1-1.373-1.51c-.47-5.375-1.84-21.523-1.84-27.841z" fill="#e0bb95"/><path d="M24.225 67.593c-.198-1.026 8.205-.738 10.677-.636 2.502 0 7.74-.426 7.674.615-.107 1.69-6.033 7.918-7.784 7.918-1.75 0-10.11-5.535-10.567-7.897z" fill="#4b4c75"/><linearGradient id="E" gradientUnits="userSpaceOnUse" x1="30.636" y1="77" x2="37.216" y2="74.407"><stop offset=".007" stop-color="#d2594d"/><stop offset="1" stop-color="#e86e58"/></linearGradient><path fill="url(#E)" d="M42.576 67.572H30.59v14.17h11.986z"/><path fill="#e86e58" d="M35.537 67.572H24.122l-.571 14.17h11.006z"/><linearGradient id="F" gradientUnits="userSpaceOnUse" x1="23.217" y1="52.099" x2="29.707" y2="53.597"><stop offset="0" stop-color="#e79a41"/><stop offset="1" stop-color="#f7b548"/></linearGradient><path d="M30.59 40.347c2.737-1.261 7.62-1.125 10.986 2.53 1.216 1.32 3.888 4.684 2.42 11.993-1.379 6.868-1.42 12.702-1.42 12.702H24.122s1.918-4.5.667-12.89c-1.492-10.002 3.8-13.414 5.8-14.335z" fill="url(#F)"/><circle cx="22.934" cy="69.477" r="6.713" fill="#33312d"/><path d="M20.476 73.625a.881.881 0 0 0 .13-.01c.81-.122 1.586-.354 2.17-.543.093-.03.173-.079.243-.123a1.68 1.68 0 0 1 .078-.046.172.172 0 0 0 .085-.116l.55-2.6a.173.173 0 0 0-.05-.16l-2.238-2.112a.172.172 0 0 0-.157-.043c-.79.18-1.627.386-2.409.756a.172.172 0 0 0-.088.096c-.337.922-.452 1.852-.574 2.836a.171.171 0 0 0 .034.126l.108.141c.083.11.168.22.256.33.372.464.831.835 1.275 1.194l.15.122c.124.1.27.152.437.152z" fill="#fff"/><path d="M18.32 71.618a28.119 28.119 0 0 1 .115.152c.082.107.166.218.254.327.366.456.82.824 1.26 1.18l.15.12c.135.11.3.152.492.123.804-.12 1.574-.351 2.156-.539a.999.999 0 0 0 .22-.113l.083-.05c.02-.01.034-.029.038-.05l.55-2.6a.077.077 0 0 0-.022-.072l-2.238-2.111a.077.077 0 0 0-.07-.02c-.784.179-1.615.383-2.389.75a.077.077 0 0 0-.039.042c-.334.911-.448 1.836-.57 2.815a.077.077 0 0 0 .01.046zM25.202 74.578a.17.17 0 0 0 .052-.008c.97-.31 1.779-.857 2.374-1.299a.17.17 0 0 0 .062-.086c.28-.878.572-1.786.599-2.749a.174.174 0 0 0-.03-.102c-.277-.416-1.264-1.264-1.759-1.51a.173.173 0 0 0-.152-.001l-2.542 1.23a.173.173 0 0 0-.09.109c-.138.493-.24.997-.348 1.531-.073.364-.147.732-.232 1.093a.172.172 0 0 0 .045.161c.612.612 1.305 1.135 1.917 1.597.03.022.066.034.104.034z" fill="#fff"/><path d="M23.236 72.863a.076.076 0 0 0 .013.017c.607.606 1.297 1.127 1.906 1.587.02.015.046.02.07.012.958-.306 1.757-.848 2.346-1.284a.077.077 0 0 0 .027-.039c.28-.872.569-1.773.595-2.722a.076.076 0 0 0-.013-.045c-.266-.4-1.248-1.244-1.722-1.48a.077.077 0 0 0-.068 0l-2.542 1.23a.077.077 0 0 0-.04.049c-.138.49-.24.995-.347 1.53a33.14 33.14 0 0 1-.232 1.09.076.076 0 0 0 .007.055zM18.832 68.626a.17.17 0 0 0 .056-.01c.117-.04.232-.081.346-.122l.02-.007c.27-.096.527-.188.79-.269.254-.078.516-.144.793-.215l.026-.007c.12-.03.244-.063.372-.097a.173.173 0 0 0 .11-.087l.19-.372c.15-.294.305-.599.472-.896.16-.284.331-.558.512-.849l.006-.008a52.3 52.3 0 0 0 .245-.396.172.172 0 0 0-.006-.188 5.288 5.288 0 0 0-1.302-1.335.172.172 0 0 0-.13-.03c-.054.01-.111.018-.168.027l-.017.002a6.015 6.015 0 0 0-.443.08c-.505.115-1.162.293-1.757.643-.161.094-.27.188-.342.293-.263.385-.534.783-.77 1.2a3.63 3.63 0 0 0-.243.578c-.03.086-.06.17-.093.253a.173.173 0 0 0 .005.139c.031.063.063.124.096.185.306.554.712 1 1.104 1.432.033.035.08.056.128.056z" fill="#fff"/><path d="M17.684 67.091c.301.545.703.987 1.091 1.414.02.023.053.031.082.02.123-.042.244-.085.364-.128.273-.097.53-.189.795-.27.256-.079.519-.146.797-.217l.397-.103a.077.077 0 0 0 .049-.039l.19-.371c.15-.296.306-.602.475-.9.162-.289.336-.567.519-.86l.245-.396a.076.076 0 0 0-.003-.083 5.192 5.192 0 0 0-1.28-1.312.076.076 0 0 0-.056-.014l-.187.03c-.143.022-.291.044-.437.078-.499.114-1.146.29-1.73.633a.932.932 0 0 0-.311.264c-.262.384-.532.78-.765 1.192-.1.179-.17.375-.238.565-.03.086-.06.171-.093.255a.076.076 0 0 0 .002.062c.03.061.062.121.095.18zM28.3 70.23c.274-.022.448-.184.588-.315.042-.039.08-.074.12-.106.651-.52.682-.598.552-1.391-.082-.502-.219-1.152-.545-1.744a5.299 5.299 0 0 1-.122-.214l-.11-.205c-.037-.07-.074-.14-.113-.21a4.491 4.491 0 0 0-.156-.264 2.138 2.138 0 0 0-1.535-1.002.172.172 0 0 0-.141.073c-.1.143-.245.257-.384.367-.21.167-.428.34-.542.624a.173.173 0 0 0-.004.119c.316.947.454 1.939.565 2.735a.17.17 0 0 0 .06.109l1.643 1.384c.031.026.07.04.111.04h.014z" fill="#fff"/><path d="M26.577 68.71c.005.009.01.016.018.022l1.643 1.384c.016.013.035.02.056.018.24-.019.393-.162.529-.289.043-.04.083-.077.125-.111.622-.496.641-.545.517-1.301-.08-.494-.215-1.134-.534-1.712a5.157 5.157 0 0 1-.122-.214l-.11-.207-.113-.209a4.402 4.402 0 0 0-.152-.258 2.047 2.047 0 0 0-1.442-.957.077.077 0 0 0-.076.031c-.108.154-.258.273-.402.387-.2.16-.408.324-.513.584a.076.076 0 0 0-.002.053c.32.956.458 1.953.57 2.753 0 .01.004.019.008.027zM25.885 65.738a.172.172 0 0 0 .118-.046l.868-.816a.173.173 0 0 0 .045-.182 3.002 3.002 0 0 0-.217-.473 9.567 9.567 0 0 0-.122-.212l-.118-.205-.013-.025a.164.164 0 0 0-.06-.06c-.99-.573-2.052-.887-3.247-.959a1.331 1.331 0 0 0-.79.194 2.67 2.67 0 0 0-.776.66.172.172 0 0 0 .012.223l1.262 1.334a.17.17 0 0 0 .095.05l2.913.515.03.002z" fill="#fff"/><path d="M21.643 63.755l.011.016 1.262 1.334c.012.012.026.02.043.022l2.913.514a.077.077 0 0 0 .066-.02l.868-.815a.077.077 0 0 0 .02-.08 2.91 2.91 0 0 0-.21-.458c-.041-.074-.083-.145-.124-.216a9.92 9.92 0 0 1-.116-.202l-.01-.018a.076.076 0 0 0-.029-.03c-.975-.566-2.023-.876-3.203-.946a1.243 1.243 0 0 0-.735.18 2.58 2.58 0 0 0-.75.636.076.076 0 0 0-.006.084zM20.52 75.728a.173.173 0 0 0 .168-.206l-.091-.453c-.079-.39-.156-.774-.231-1.158a.696.696 0 0 0-.075-.208.842.842 0 0 0-.238-.265 9.26 9.26 0 0 1-1.477-1.373l-.188-.216-.109-.124a.172.172 0 0 0-.112-.057 9.668 9.668 0 0 0-.646-.035 11.504 11.504 0 0 1-.71-.037.173.173 0 0 0-.158.238c.128.309.27.605.422.88.79 1.433 1.896 2.415 3.38 3.002.021.008.042.012.064.012z" fill="#fff"/><path d="M17.158 72.668c.78 1.412 1.87 2.38 3.333 2.959a.076.076 0 0 0 .103-.087l-.091-.452c-.079-.39-.157-.774-.231-1.16a.605.605 0 0 0-.065-.179.75.75 0 0 0-.212-.234 9.36 9.36 0 0 1-1.492-1.388c-.06-.072-.122-.142-.19-.219l-.106-.12a.077.077 0 0 0-.05-.025c-.21-.02-.42-.027-.643-.035-.223-.007-.453-.014-.695-.036a.077.077 0 0 0-.078.105c.127.306.267.6.417.871zM24.208 76.073a.174.174 0 0 0 .04-.005 7.21 7.21 0 0 0 3.526-1.927c.225-.222.257-.276.342-.58a.172.172 0 0 0-.117-.212l-.288-.084a.172.172 0 0 0-.156.031c-.387.312-.819.54-1.236.762a39.39 39.39 0 0 0-.184.098 4.365 4.365 0 0 1-.578.267c-.306.11-.509.336-.704.554a8.18 8.18 0 0 1-.114.126c-.134.143-.269.281-.424.441l-.23.237a.171.171 0 0 0-.029.2l.002.005c.031.053.088.087.15.087z" fill="#fff"/><path d="M24.142 75.938c.017.03.05.045.084.037a7.118 7.118 0 0 0 3.48-1.903c.214-.21.237-.25.317-.537a.076.076 0 0 0-.052-.094l-.287-.084a.077.077 0 0 0-.07.014c-.394.318-.83.549-1.252.772l-.182.097c-.182.097-.38.198-.59.273-.284.102-.478.319-.666.528l-.115.127c-.134.144-.27.282-.426.443l-.23.236a.077.077 0 0 0-.011.091zM16.82 67.484a.171.171 0 0 0 .116-.045l.522-.478a.172.172 0 0 0 .047-.073c.207-.631.527-1.267.95-1.891a.172.172 0 0 0-.031-.228.172.172 0 0 0-.23.005 5.458 5.458 0 0 0-1.54 2.49.171.171 0 0 0 .075.194.174.174 0 0 0 .091.026z" fill="#fff"/><path d="M16.753 67.349a.077.077 0 0 0 .119.019l.521-.478a.076.076 0 0 0 .021-.032c.21-.64.533-1.284.962-1.916a.077.077 0 0 0-.116-.098 5.363 5.363 0 0 0-1.513 2.446.077.077 0 0 0 .006.059z" fill="#fff"/><path d="M32.947 39.731c-5.892.896-13.86 6.722-15.593 15.262-1.236 6.095.758 12.222.758 12.222l1.565.463s-.278-5.238 2.295-10.625c2.56-5.358 9.817-6.718 9.817-6.718s1.304-8.781 1.158-10.604z" fill="#e0bb95"/><path d="M19.481 66.964l-1.439.076s-.073 2.018.21 3.331c.391 1.819.65 2.518 1.027 2.975.435.528.834.136.834.136s.169.48.402.614.342-.117.301-.367l-.317-2.92s.917.948 1.094 1.104c.168.125.294.148.38.068.093-.093.095-.235.006-.427a37.24 37.24 0 0 1-.728-2.149c-.367-1.196-1.77-2.441-1.77-2.441z" fill="#e0bb95"/><path d="M32.947 39.731c-5.892.896-14.063 6.683-15.593 15.262a14.41 14.41 0 0 0 5.777 2.802c1.36-3.654 9.028-7.385 9.028-7.385s.934-8.856.788-10.679z" fill="#f7b548"/><path d="M41.585 38.418c.186.305.277.569.445.722.133.178.324.263.654.399l.008.003a.129.129 0 0 1 .022.226.85.85 0 0 1-.591.12 1.052 1.052 0 0 1-.579-.32c-.278-.356-.337-.785-.19-1.139a.128.128 0 0 1 .227-.017z" fill="#bf8f68"/><radialGradient id="G" cx="-1388.525" cy="-182.679" r="5.884" gradientTransform="matrix(-0.8514,-0.2611,0.3095,-1.0094,-1083.6476,-509.3768)" gradientUnits="userSpaceOnUse"><stop offset="0" stop-color="#915b37"/><stop offset="1" stop-color="#dbb28a"/></radialGradient><path d="M35.618 33.746l5.608 1.72c.083.025.128.12.1.21 0 0-1.064 5.798-1.831 6.362-.715.527-1.31.935-2.707.374-1.874-.751-2.171-1.774-3.84-2.71 1.468-.706 2.47-5.84 2.47-5.84.028-.09.117-.142.2-.116z" fill="url(#G)"/><path d="M38.529 33.812a.17.17 0 0 0-.192.028l-.95.874c-.569.525-1.416.655-2.135.377a.17.17 0 0 1-.107-.168c.023-.455-.101-2.246 1.31-5.12.407-.833 1.804-1.334 2.684-.934l3.974 1.81c1.202.547 1.697 2.043 1.106 3.34l-.881 1.925c-.574 1.26-3.54-1.476-4.809-2.132z" fill="#797673"/><circle cx="37.657" cy="34.706" r="1.523" fill="#e0bb95"/><path d="M39.83 41.522a4.997 4.997 0 0 1-2.477-6.619l1.256-2.759a2.141 2.141 0 0 1 2.836-1.061l4.794 2.183c.086.039.125.141.085.228l-3.072 6.747a2.584 2.584 0 0 1-3.422 1.28z" fill="#e0bb95"/><path d="M42.825 39.367l-.051-.033-1.463-.976a.158.158 0 0 0-.028-.015c-.091-.036-.211.018-.263.125-.264.539-.16 1.146.282 1.441.442.295 1.075.18 1.515-.242.096-.092.1-.237.008-.3z" opacity=".6" fill="#9b643d"/><path d="M41.885 39.252c.386.257.649.35.942.402.084-.093.087-.227-.002-.287l-.051-.033-1.463-.976a.167.167 0 0 0-.028-.015c-.09-.035-.207.017-.26.12.136.223.504.55.862.79z" fill="#fff"/><g><path d="M43.268 39.048c.076-.146.424-.058.588-.083l.885-.134a.305.305 0 0 0 .257-.344l-.165-1.177c-.039-.272.002-.55.116-.8l-.354-.155z" fill="#e0bb95"/></g><ellipse transform="matrix(0.4144,-0.9101,0.9101,0.4144,-7.4136,60.8918)" cx="43.609" cy="36.207" rx=".691" ry=".327" fill="#33312d"/><path d="M39.382 30.633c1.4-.27 2.948.496 2.272 2.184-.402 1.003-1.16 1.157-1.423 1.18-.263.022-.887.005-1.366-.322a3.266 3.266 0 0 0-.888-.445.169.169 0 0 1-.115-.205c.14-.542.646-2.224 1.52-2.392z" fill="#797673"/><path d="M45.846 34.539l-9.75-4.505.58-1.255c.825-1.785 2.97-2.55 4.793-1.708l3.152 1.457c1.821.842 2.63 2.97 1.805 4.756z" fill="#33312d"/><path d="M45.68 34.909l-11.492-5.31a.383.383 0 0 1 .321-.696l11.492 5.31z" fill="#33312d"/><path d="M46.001 34.213l-2.046-.945.031-.069a1.419 1.419 0 0 1 1.883-.693l.459.212a.33.33 0 0 1 .161.439z" fill="#797673"/><path d="M45.87 32.506s.307.263.563.033c.577-.518 1.672-.74 2.156.336.308.684-.188 1.943-1.18 1.988-.787.036-1.408-.65-1.408-.65l-1.617-.747z" fill="#797673"/><path d="M28.77 106.054s-.377 1.522.372 1.92c.428.229 3.422 1.073 3.82 1.284.543.288.544.987-.434 1.072-.768.067-5.08.029-6.906.009a.67.67 0 0 1-.652-.806c.228-1.114.605-3.05.568-3.48h3.231zM38.26 106.054s-.38 1.444.207 1.837c.403.271 3.926 1.146 4.315 1.374.491.288.553.98-.425 1.065-.768.067-5.08.029-6.906.009a.67.67 0 0 1-.652-.806c.228-1.114.268-3.05.23-3.48h3.232z" fill="#e86e58"/></g><g><path d="M86.796 111.36a2.312 2.312 0 0 1-2.31-2.31 2.312 2.312 0 0 1 2.31-2.31h14.49l-.491.77c-.23.358-.366.934-.366 1.54 0 .605.137 1.18.366 1.54l.49.769H86.797z" fill="#e1dfdd"/><path d="M100.374 107.24c-.27.421-.445 1.071-.445 1.81 0 .737.176 1.387.445 1.809H86.796a1.81 1.81 0 0 1 0-3.62h13.578m1.823-1H86.796c-1.549 0-2.809 1.261-2.809 2.81 0 1.55 1.26 2.81 2.81 2.81h15.4l-.98-1.538c-.14-.218-.288-.667-.288-1.272s.149-1.053.288-1.272z" fill="#b3afab"/><path d="M101.147 109.05c0-.739.176-1.389.445-1.81H88.015a1.81 1.81 0 0 0 0 3.619h13.577c-.269-.422-.445-1.071-.445-1.81z" fill="#e1dfdd"/><path d="M95.929 109.05c0-.739.176-1.389.445-1.81H82.796a1.81 1.81 0 0 0 0 3.619h13.578c-.27-.422-.445-1.071-.445-1.81z" fill="#faf9f8" stroke="#797673" stroke-width="2" stroke-miterlimit="10"/><path d="M97.108 109.05c0-.739.176-1.389.444-1.81H82.796a1.81 1.81 0 0 0 0 3.619h14.756c-.269-.422-.444-1.071-.444-1.81z" fill="#faf9f8"/><path fill="none" stroke="#e1dfdd" stroke-width=".25" stroke-linecap="round" stroke-miterlimit="10" d="M85.199 108.134h7.199M85.199 109.965h7.199M83.605 109.049h7.2"/><path d="M86.776 103.514c0-.738-.175-1.388-.444-1.81h13.577a1.81 1.81 0 0 1 0 3.62H86.332c.269-.422.445-1.072.445-1.81z" fill="#ee8f94" stroke="#ee8f94" stroke-width="2" stroke-miterlimit="10"/><path d="M82.776 103.514c0-.738-.175-1.388-.444-1.81h13.577a1.81 1.81 0 0 1 0 3.62H82.332c.269-.422.445-1.072.445-1.81z" fill="#faf9f8" stroke="#e3646a" stroke-width="2" stroke-miterlimit="10"/><path d="M81.598 103.514c0-.738-.176-1.388-.445-1.81H95.91a1.81 1.81 0 0 1 0 3.62H81.153c.269-.422.445-1.072.445-1.81z" fill="#faf9f8"/><path fill="none" stroke="#e1dfdd" stroke-width=".25" stroke-linecap="round" stroke-miterlimit="10" d="M94.507 102.599h-7.2M94.507 104.43h-7.2M96.1 103.514h-7.199"/></g><g><linearGradient id="H" gradientUnits="userSpaceOnUse" x1="93.148" y1="-643.3" x2="92.641" y2="-641.063" gradientTransform="matrix(1,0,0,-1,0,-548.3247)"><stop offset="0" stop-color="#c8c6c4"/><stop offset="1" stop-color="#e1dfdd"/></linearGradient><path d="M93.242 95.104a2.305 2.305 0 0 1-.844-3.149 2.305 2.305 0 0 1 .844 3.149z" fill="url(#H)"/><path d="M93.242 95.11a2.305 2.305 0 0 1-2.305-2.305 2.305 2.305 0 0 1 2.305 2.305z" fill="#c8c6c4"/><path d="M93.283 95.42l-.011.089-.012-.09c-1.643-1.284-3.97-.03-3.5 2.036.359 1.577 1.45 3.489 2.81 3.489.301 0 .516-.003.702-.006.186.003.4.006.7.006 1.361 0 2.453-1.912 2.812-3.489.47-2.066-1.858-3.32-3.5-2.035z" fill="#e3646a"/><circle cx="95.161" cy="96.386" r=".746" fill="#ee8f94"/></g><g><path d="M59.016 63.508c-.331.534-1.221.727-1.221.727s1.283-1.523 1.146-1.752c-.137-.228-.196-.086-.377.002-.181.087-1.495 1.512-1.495 1.512-.3.304-.503.69-.582 1.11l.488 6.05 1.621-1.76-.864-3.224s1.528-1.4 1.982-2.415c.455-1.015 1.178-1.816 1.254-2.075.076-.259-.24-.283-.575.128-.333.412-1.045 1.163-1.377 1.697z" fill="#bf8f68"/><path d="M58.564 69.277s4.29 10.352 13.441 12.77l-6.513 6.7s-10.287-7.483-9.182-16.983z" fill="#28c2d1"/><path d="M55.18 66.189l-1.018-1.27a.44.44 0 0 1 .068-.617l6.356-5.097a.44.44 0 0 1 .618.068l1.018 1.269a.44.44 0 0 1-.068.618l-6.356 5.097a.44.44 0 0 1-.618-.068z" fill="#eaeaf3"/><path fill="#c3c3e1" d="M60.363 59.386l.946 1.18-5.912 4.741-.947-1.18z"/><linearGradient id="I" gradientUnits="userSpaceOnUse" x1="56.373" y1="110.702" x2="54.143" y2="101.203"><stop offset="0" stop-color="#4b4c75"/><stop offset="1" stop-color="#6e6fac"/></linearGradient><path d="M68.112 103.87c-.327-.12-9.234-11.098-14.204-10.55-4.97.547-11.114 16.377-11.114 16.377H46.5s5.493-7.112 8.095-7.492c2.602-.379 7.051 8.072 7.051 8.072z" fill="url(#I)"/><path d="M64.063 101.277c.135 8.033 5.462 8.033 5.462 8.033l7.903-6.183s-13.448-6.728-13.365-1.85z" fill="#6e6fac"/><path d="M88.761 110.821c-.64-.1-1.39.465-1.39.465s2.054.023 2.14.284c.086.261-.065.212-.255.294-.19.082-2.188.149-2.188.149-.439.03-.877-.072-1.259-.293l-2.107-2.193 1.463-.763.65 1.267s2.123-.251 3.221.077c1.098.328 2.211.303 2.465.418.253.114.059.379-.487.362-.546-.016-1.612.034-2.253-.067z" fill="#bf8f68"/><path fill="#28c2d1" d="M73.573 91.366l5.748-4.714 6.494 23.379-1.3.908z"/><path d="M77.428 103.127l.4 2.61a5.455 5.455 0 0 1-5.392 6.28H33.791a.645.645 0 0 1-.62-.455c-.411-1.34-1.596-5.216-1.737-5.94-.19-.972.15-1.733 1.133-.787.982.946 2.115 4.996 3.098 5.098.982.101 13.274-4.082 22.046-5.098 8.771-1.016 19.717-1.708 19.717-1.708z" fill="#6e6fac"/><path d="M80.505 79.503c-1.84 2.573-4.977 3.637-7.775 2.903l-.002-.001c-.03-.01-.062-.017-.091-.028a6.762 6.762 0 0 1-2.703-1.475 7.17 7.17 0 0 1-.649-.662 6.689 6.689 0 0 1-.755-1.077c-1.284-2.27-1.247-5.21.3-7.59.064-.097.128-.19.195-.283a7.508 7.508 0 0 1 2.957-2.458c.01-.003.02-.009.031-.013.072-.034.146-.063.219-.094l.02-.009.036-.014a7.113 7.113 0 0 1 1.284-.393c1.855-.386 3.828-.04 5.46 1.128 1.744 1.248 2.728 3.177 2.868 5.208a7.308 7.308 0 0 1-.159 2.09 7.525 7.525 0 0 1-.44 1.358 4.816 4.816 0 0 1-.152.335 8.45 8.45 0 0 1-.404.72l-.013.022c-.074.112-.148.222-.227.333z" fill="#594539"/><path d="M65.598 102.745l11.908.982s-.374-2.766.064-5.632c.37-2.419 1.079-5.22 1.757-7.403 1.212-3.9-1.247-7.886-5.264-8.536l-.202-.033c-3.51-.567-7.008 1.281-8.522 5.068-2.536 6.344-1.253 11.045-1.291 13.85a1.686 1.686 0 0 0 1.55 1.704z" fill="#28c2d1"/><path d="M72.032 83.795c1.792.29 1.896-.43 4.802-.522-.59-.47-1.93-.98-2.897-1.137l-.202-.033c-1.202-.194-2.526-.304-3.006.157-.295.283-.114 1.306 1.303 1.535z" fill="#bf8f68"/><path d="M75.991 83.091l-4.048.383.237-3.418s1.954-1.362 4.145-.867c-1.055 3.572-.334 3.902-.334 3.902z" fill="#bf8f68"/><path d="M77.41 77.4c-1.067 2.809-4.301 4.164-6.359 3.276-2.058-.889-3.067-3.412-2.057-6.242 1.288-3.605 3.768-4.56 5.826-3.671 2.057.888 3.658 3.828 2.59 6.637z" fill="#bf8f68"/><radialGradient id="J" cx="13334.357" cy="-2992.089" r="1.931" gradientTransform="matrix(-0.9372,-0.3222,-0.3054,1.0199,11654.611,7424.9136)" gradientUnits="userSpaceOnUse"><stop offset="0" stop-color="#9b643d"/><stop offset=".882" stop-color="#ba8a63" stop-opacity=".118"/><stop offset="1" stop-color="#bf8f68" stop-opacity="0"/></radialGradient><path d="M73.646 73.09l-.66 1.463a2.561 2.561 0 0 1-1.357 1.263c-.228.092-.459.457-.355.78.057.177.413.665.277 1.021l-.574 1.37-2.753-1.164 2.488-6.108z" fill="url(#J)"/><ellipse transform="matrix(0.3496,-0.9369,0.9369,0.3496,-23.2746,119.0316)" cx="74.093" cy="76.279" rx=".667" ry=".368" fill="#3a312e"/><path d="M71.134 78.197c.27.15.45.179.688.168.238.014.455-.05.78-.124l.016-.003a.13.13 0 0 1 .152.166c-.124.386-.54.598-.945.615-.204-.016-.42-.056-.595-.189-.175-.126-.306-.325-.308-.534a.128.128 0 0 1 .19-.112z" fill="#9b643d"/><path d="M73.503 69.698s-1.704 2.855.381 4.572c2.093 1.723 3.197 2.246 3.447 3.326 1.552-.573 2.802-3.368 1.747-5.237-2.053-3.637-5.575-2.661-5.575-2.661z" fill="#594539"/><ellipse transform="matrix(0.3224,-0.9466,0.9466,0.3224,-22.913,117.8864)" cx="70.885" cy="74.947" rx=".665" ry=".368" fill="#3a312e"/><path d="M75.231 79.218l1.37.643c.582.275 1.26.01 1.512-.593a1.236 1.236 0 0 0-.6-1.586l-1.368-.643z" fill="#bf8f68"/><path d="M76.224 80.21c.452-.207.89-.214 1.312-.022.409.203.679.549.81 1.04.132.49.086.98-.138 1.472s-.564.848-1.019 1.066c-.452.207-.887.208-1.307.003-.411-.19-.687-.537-.827-1.042a2.128 2.128 0 0 1 .14-1.473c.234-.49.578-.838 1.03-1.045z" fill="#594539"/><path d="M73.581 83.146c.258-.36.594-.585 1.007-.677.43-.098.81-.03 1.143.204.338.223.532.545.583.966.046.406-.06.789-.318 1.148a1.69 1.69 0 0 1-1.03.686 1.357 1.357 0 0 1-1.12-.212 1.354 1.354 0 0 1-.583-.967c-.046-.405.06-.788.318-1.148z" fill="#594539"/><path d="M72.194 85.684c.137-.443.382-.788.734-1.033.34-.255.69-.337 1.049-.246.357.068.613.279.768.63.156.353.165.75.028 1.194-.141.41-.387.744-.738 1-.35.257-.704.351-1.061.282-.358-.08-.615-.296-.77-.648-.145-.353-.148-.746-.01-1.179z" fill="#594539"/><path d="M72.65 86.846c.329-.006.604.114.826.362.21.258.306.588.29.992a1.77 1.77 0 0 1-.412 1.038c-.247.29-.536.45-.868.478a.989.989 0 0 1-.828-.346c-.218-.27-.315-.6-.29-.992a1.77 1.77 0 0 1 .412-1.038c.249-.3.539-.465.87-.494z" fill="#594539"/><path d="M72.504 89.303c.659.251.927.783.806 1.596-.119.803-.516 1.366-1.193 1.692-.326.16-.522.393-.588.7a.893.893 0 0 0 0 .418l-.336-.343a.972.972 0 0 1-.135-.91.784.784 0 0 0-.062-.682c-.184-.286-.286-.531-.308-.735-.063-.46.066-.9.386-1.317.366-.497.843-.637 1.43-.419z" fill="#594539"/><path d="M76.211 99.438l1.164.77s-.018.448.654 1.048c.567.507-.666.906-.612 1.54l-1.72-.064z" fill="#28c2d1"/></g><g><g fill="#6e6fac"><path d="M239.585 110.34c.106.649-1.905 1.113-1.905 1.113-.582.073-.541.777.21.774l2.63-.012c.346-.002.624-.258.623-.57l-.059-1.305zM246.21 110.323c-.109.649 1.9 1.12 1.9 1.12.583.076.54.78-.213.774l-2.63-.022c-.345-.003-.623-.26-.62-.573l-.037-1.323z"/><path d="M241.1 110.548l-1.497-.098c-5.216-20.053-6.338-34.784-6.338-34.784s1.705-3.985 6.197-3.521c4.415.455 3.9 4.724 3.9 4.724z"/><path d="M244.64 110.648l1.585-.116c4.032-12.486 5.765-34.81 5.765-34.81s-1.352-3.894-5.615-3.49c-3.877.367-4.209 4.404-4.209 4.404z"/></g><g transform="matrix(1.0422363,0.24424744,-0.24424744,1.0422363,-158.1,-258.9)"><radialGradient id="K" cx="1499.2" cy="-198.247" r="5.659" gradientTransform="matrix(0.9959,0.0903,-0.0903,0.9959,-1078.2593,252.6949)" gradientUnits="userSpaceOnUse"><stop offset=".067" stop-color="#9b643d"/><stop offset=".23" stop-color="#ae7c56"/><stop offset=".49" stop-color="#c89d78"/><stop offset=".705" stop-color="#d8b28c"/><stop offset=".847" stop-color="#deb994"/></radialGradient><path d="M438.905 193.764l.325-.946s-.492-1.55-1.095-2.424c-.836-1.21-1.48-1.804-1.892-2.024-.478-.254-.65.153-.65.153s-.27-.3-.48-.327c-.21-.027-.215.189-.11.359l1.115 2.037s-.956-.415-1.132-.475c-.16-.041-.26-.02-.299.065-.04.095.002.2.126.313.338.355.817.97 1.18 1.35.73.762 2.912 1.92 2.912 1.92z" fill="url(#K)"/></g><radialGradient id="L" cx="244.459" cy="63.088" r="7.508" gradientTransform="matrix(-1,0,0,1,494.9502,0)" gradientUnits="userSpaceOnUse"><stop offset="0" stop-color="#28c2d1"/><stop offset=".004" stop-color="#2db0be"/><stop offset="1" stop-color="#28c2d1"/></radialGradient><path d="M246.274 51.527c5.024.005 6.451 5.529 7.54 4.65.705-.569-2.203-5.309-2.203-5.309l.975-1.525s6.71 4.738 7.24 9.17c.748 6.286-9.463 7.59-11.507 5.306-2.044-2.283-4.204-12.294-2.045-12.292z" fill="url(#L)"/><radialGradient id="M" cx="261.917" cy="65.893" r="10.882" gradientTransform="matrix(-1,0,0,1,494.9502,0)" gradientUnits="userSpaceOnUse"><stop offset="0" stop-color="#28c2d1"/><stop offset=".004" stop-color="#2db0be"/><stop offset="1" stop-color="#28c2d1"/></radialGradient><path d="M252.003 80.526h-18.751V59.432a8.28 8.28 0 0 1 8.28-8.28h2.19a8.28 8.28 0 0 1 8.281 8.28v21.094z" fill="url(#M)"/><g><path d="M246.107 40.287c.75 2.399 2.344 1.64 2.177 4.09.154-1.127.886-2.538-.111-4.293-.55-.966-2.98-2.358-2.066.203z" fill="#594539"/><path d="M242.502 35.754l-7.18 6.135-.751.173.287-.714 7.181-6.135c.125-.107.331-.072.458.077s.13.358.005.464z" fill="#f1ad5b"/><linearGradient id="N" gradientUnits="userSpaceOnUse" x1="1282.791" y1="-901.538" x2="1286.445" y2="-896.712" gradientTransform="matrix(0.941,-0.3385,0.3385,0.941,-667.3079,1318.1423)"><stop offset=".269" stop-color="#5a4539"/><stop offset=".811" stop-color="#463228"/></linearGradient><circle cx="237.309" cy="37.373" r="3.026" fill="url(#N)"/><path d="M248.994 42.48c.035 1.586-.821 2.637-1.019 3.436-.897 3.623-6.314 4.497-6.701 3.78-.845-1.563-4.564-1.943-4.85-5.947-.239-3.369 2.235-6.471 5.855-6.729 3.62-.258 6.643 2.132 6.715 5.46z" fill="#594539"/><radialGradient id="O" cx="2093.486" cy="47.749" r="4.349" gradientTransform="translate(-1848.6266)" gradientUnits="userSpaceOnUse"><stop offset=".067" stop-color="#9b643d"/><stop offset=".23" stop-color="#ae7c56"/><stop offset=".49" stop-color="#c89d78"/><stop offset=".705" stop-color="#d8b28c"/><stop offset=".847" stop-color="#deb994"/></radialGradient><path d="M245.154 51.281v-.02c-.63-.212-.609-.753-.609-.753v-3.675h-3.831s.021 2.797.012 3.5c-.011.87-.568.927-.568.927v.059c0 .722.585 1.309 1.307 1.31l2.38.002c.739 0 1.337-.61 1.309-1.35z" fill="url(#O)"/><ellipse transform="matrix(0.9975,-0.071,0.071,0.9975,-2.5564,17.7106)" cx="247.925" cy="44.826" rx="1.235" ry="1.577" fill="none" stroke="#9b643d" stroke-width=".386" stroke-linecap="round" stroke-linejoin="round"/><path d="M245.708 49.509c2.066-.094 2.839-1.44 2.741-2.808l-.28-3.935c-.116-1.637-1.31-3.17-3.247-3.22-2.958-.075-4.81 1.945-4.62 4.598l.197 1.515c.786 2.584 3.03 3.949 5.209 3.85z" fill="#e0bb95"/><path d="M246.347 47.023c.253.144.421.297.601.34.165.075.335.06.624.027a.107.107 0 0 1 .113.153c-.14.296-.56.44-.914.317-.34-.144-.55-.428-.584-.738a.105.105 0 0 1 .155-.102z" fill="#bf8f68"/><path d="M243.237 47.231l-2.46.175a1.201 1.201 0 1 1-.17-2.397l2.46-.175z" fill="#e0bb95"/><path fill="none" stroke="#9b643d" stroke-width=".386" stroke-linecap="round" stroke-linejoin="round" d="M245.747 44.477l-5.385.369"/><g fill="#594539"><path d="M240.581 37.658c-4.176 1.679-2.956 7.901.07 7.348 2.2.095 3.1-.803 4.172-1.978 1.645-1.804 1.491-4.227.998-4.776-.498-.554-2.682-1.313-5.24-.594z"/><path d="M247.115 39.352c-.284 4.967-3.75 5.262-3.75 5.262 2.884-.707 2.739-5.46 2.739-5.46z"/></g><path d="M248.234 44.286s-.013.794.641 1.02c.479.165.401.912-.16 1.148-.313.132-1.127.176-1.127.176l-.14-2.173z" fill="#e0bb95"/><ellipse transform="matrix(0.9975,-0.071,0.071,0.9975,-2.5633,17.6461)" cx="247.014" cy="44.891" rx="1.235" ry="1.577" fill="none" stroke="#9b643d" stroke-width=".386" stroke-linecap="round" stroke-linejoin="round"/><ellipse transform="matrix(0.9978,-0.0667,0.0667,0.9978,-2.4399,16.5677)" cx="246.853" cy="44.817" rx=".318" ry=".658" fill="#33312d"/></g><path d="M248.741 69.288h-9.185a.974.974 0 0 1-.974-.974v-12.67c0-.538.437-.975.974-.975h9.185c.538 0 .974.437.974.974v12.671a.974.974 0 0 1-.974.974z" fill="#797673"/><g><path d="M240.136 61.598l-.072 1.58s1.878.417 3.157.379c1.771-.053 2.471-.175 2.964-.449.57-.316.272-.758.272-.758s.48-.075.645-.27c.165-.195-.05-.341-.292-.346l-2.79-.207s1.046-.696 1.222-.834c.147-.136.19-.25.13-.345-.071-.103-.204-.13-.4-.079-.58.11-1.51.238-2.139.311-1.184.138-2.697 1.018-2.697 1.018z" fill="#e0bb95"/></g><path d="M238.543 58.38l-.409-6.499c-5.55.71-12.461 7-9.887 11.678 2.874 5.22 12.092.403 12.092.403l-.203-2.364s-5.846-.198-5.768-1.113c.077-.915 4.175-2.105 4.175-2.105z" fill="#28c2d1"/><path d="M247.996 51.757c-1.046-.477-3.05-.606-4.274-.606h-2.19c-1.21 0-3.385.435-4.423.903 2.955.216 4.806 1.229 7.04 1.229 2.22 0 3.415-.674 3.847-1.526z" fill="#e0bb95"/></g><g><path d="M227.761 40.465h-3.753a2.584 2.584 0 0 1-2.584-2.585v-3.904a2.584 2.584 0 0 1 2.584-2.584h3.753a2.584 2.584 0 0 1 2.584 2.584v3.905a2.584 2.584 0 0 1-2.584 2.584z" fill="#594539"/><circle cx="221.133" cy="38.692" r="1.301" fill="#594539"/><g fill="#594539"><circle cx="227.852" cy="30.894" r="1.483"/><circle cx="229.786" cy="31.92" r="1.483"/><circle cx="230.818" cy="33.967" r="1.483"/><circle cx="220.789" cy="36.414" r="1.301"/><circle cx="225.166" cy="30.894" r="1.483"/><circle cx="222.798" cy="31.8" r="1.483"/><circle cx="221.315" cy="33.86" r="1.483"/></g><circle cx="223.431" cy="41.274" r="1.057" fill="#594539"/><radialGradient id="P" cx="270.066" cy="104.507" r="10.855" gradientTransform="matrix(-1,0,0,1,494.9502,0)" gradientUnits="userSpaceOnUse"><stop offset=".016" stop-color="#302f2d"/><stop offset=".137" stop-color="#3b3937"/><stop offset=".43" stop-color="#4f4d4a"/><stop offset=".72" stop-color="#5c5956"/><stop offset="1" stop-color="#605d5a"/></radialGradient><path d="M232.388 71.929s4.81 12.609.624 21.978c-2.544 5.694-12.867 11.98-12.867 11.98s-.623 2.109-.146 3.197c.417.95 1.018 1.614.648 1.837-.792.479-2.472-.217-2.843-.963l-1.609-4.513a.783.783 0 0 1 .205-.83c1.875-1.748 9.923-10.604 10.57-14.083 1.022-5.506-4.277-13.143-4.277-13.143z" fill="url(#P)"/><path d="M218.067 72.672c.054-1.322-.458-3.533 3.731-3.567 4.02-.032 3.875 3.087 3.866 3.769-.134 10.58-.319 32.964.127 36.962.108.964-3.269.963-3.29.21 1.587-3.022-5.816-23.91-4.434-37.374z" fill="#605d5a"/><path d="M222.706 107.612s.26 2.063-.205 2.434c-1.048.839-2.486 1.487-3.82 1.678-1.83.261-1.393 1.578-.526 1.578.723 0 3.934-.13 6.893-.189a.938.938 0 0 0 .91-1.067l-.298-3.95zM218.097 73.636c-.145-.748 5.605-.464 7.406-.39 1.823 0 6.932-.297 6.884.461-.077 1.231-5.688 5.756-6.963 5.756-1.275 0-6.994-4.107-7.327-5.827z" fill="#605d5a"/><radialGradient id="Q" cx="278.597" cy="67.394" r="8.373" gradientTransform="matrix(-1.1002,0,0,1,520.4158,-8.751527e-6)" gradientUnits="userSpaceOnUse"><stop offset="0" stop-color="#9d5934"/><stop offset=".003" stop-color="#9e5a34"/><stop offset=".187" stop-color="#be7b3b"/><stop offset=".376" stop-color="#d79441"/><stop offset=".57" stop-color="#e9a645"/><stop offset=".774" stop-color="#f4b147"/><stop offset="1" stop-color="#f7b548"/></radialGradient><path d="M217.193 74.102v-20.38c0-3.947 3.521-7.148 7.865-7.148h.844c4.343 0 7.864 3.2 7.864 7.149v20.379h-16.573z" fill="url(#Q)"/><radialGradient id="R" cx="268.627" cy="43.408" r="4.782" gradientTransform="matrix(-0.7198,0.5842,0.4881,0.8545,400.2434,-150.7302)" gradientUnits="userSpaceOnUse"><stop offset=".026" stop-color="#724938"/><stop offset=".78" stop-color="#9b643d"/></radialGradient><path fill="url(#R)" d="M227.992 40.608h-4.31v7.83h4.31z"/><path d="M228.261 44.367a4.311 4.311 0 0 1-4.311-4.31v-3.783a2.814 2.814 0 0 1 2.814-2.814h1.637a2.814 2.814 0 0 1 2.814 2.814v5.14a2.954 2.954 0 0 1-2.954 2.953z" fill="#9b643d"/><circle cx="222.104" cy="40.465" r="1.057" fill="#594539"/><ellipse transform="matrix(1,-0.0055,0.0055,1,-0.2085,1.2763)" cx="229.879" cy="38.213" rx=".313" ry=".712" fill="#3a312e"/><path d="M228.674 40.981c.128.117.245.201.371.28.127.072.245.159.381.2.123.07.252.105.373.135.123.031.24.047.41.012l.022-.005a.135.135 0 0 1 .153.18c-.084.225-.333.37-.57.407-.241.037-.47-.022-.676-.101-.377-.197-.745-.56-.703-1.044a.13.13 0 0 1 .217-.084z" fill="#845135"/><circle cx="228.303" cy="33.46" r="1.483" fill="#594539"/><circle cx="226.639" cy="35.113" r="1.483" fill="#594539"/><path d="M230.621 37.391l.594.002s-.007.89.283 1.321c.057.085.203.212.382.351a.784.784 0 0 1-.123 1.315c-.175.091-.315.179-.373.248a.865.865 0 0 0-.183.438l-.508-.175zM224.23 40.895h-.397a1.459 1.459 0 1 1 0-2.918h.397a1.459 1.459 0 1 1 0 2.918z" fill="#9b643d"/><path d="M222.542 37.977h2.349c.907 0 1.643-.735 1.643-1.643l1.219-2.882h-5.173z" fill="#594539"/><path d="M219.477 67.229s1.022-.988 1.493-.991c.52-.004 1.46.193 1.73.554.268.36-.102.58-.102.58s.39.19.795.475c.547.383-.28.815-.28.815l-.56.908a.667.667 0 0 1-.731.297s-1.274-.201-1.76-.422c-.613-.278-1.978-.778-1.978-.778z" fill="#9b643d"/><path d="M216.959 61.614c.61-3.212 5.092-5.455 5.092-5.455l-.157-8.96s-9.608 4.41-10 12.805c-.424 8.802 6.41 9.883 6.41 9.883l1.173-2.658s-3.129-2.402-2.518-5.615z" fill="#f7b548"/><path d="M232.406 67.229s-1.022-.988-1.493-.991c-.52-.004-1.46.193-1.73.554-.268.36.102.58.102.58s-.39.19-.795.475c-.547.383.28.815.28.815l.56.908a.667.667 0 0 0 .731.297s1.274-.201 1.76-.422c.613-.278 1.978-.778 1.978-.778z" fill="#9b643d"/><path d="M234.37 61.614c-.61-3.212-4.538-5.455-4.538-5.455l.157-8.96s8.959 4.501 9.351 12.896c.424 8.803-5.761 9.792-5.761 9.792l-1.173-2.658s2.574-2.402 1.964-5.615z" fill="#f7b548"/><path d="M229.147 64.755h-6.506s0 4.134-2.809 4.844v2.72h12.124V69.6c-2.809-.71-2.809-4.844-2.809-4.844z" fill="#ffd590"/><path fill="#f7b548" d="M230.037 50.03h-8.833v-3.486h8.833z"/><path d="M221.11 46.574h9.021a.846.846 0 1 0 0-1.691h-1.577c-1.234 0-.876 1.661-1.468 1.661-.591 0-.22-1.661-1.466-1.661h-4.51a.846.846 0 0 0 0 1.691z" fill="#f7b548"/><g><circle cx="224.839" cy="46.37" r=".641" fill="#b3afab"/><path fill="none" stroke="#ffd590" stroke-width=".385" stroke-linecap="round" stroke-miterlimit="10" d="M224.839 46.37v5.214"/><path fill="none" stroke="#ffd590" stroke-width=".722" stroke-linecap="round" stroke-miterlimit="10" d="M224.839 51.082v1.229"/></g><g><circle cx="228.764" cy="46.37" r=".641" fill="#b3afab"/><path fill="none" stroke="#ffd590" stroke-width=".385" stroke-linecap="round" stroke-miterlimit="10" d="M228.764 46.37v5.214"/><path fill="none" stroke="#ffd590" stroke-width=".722" stroke-linecap="round" stroke-miterlimit="10" d="M228.764 51.082v1.229"/></g></g></svg>